<?xml version="1.0" standalone="no"?>
<!DOCTYPE svg PUBLIC "-//W3C//DTD SVG 20010904//EN"
 "http://www.w3.org/TR/2001/REC-SVG-20010904/DTD/svg10.dtd">
<svg version="1.0" xmlns="http://www.w3.org/2000/svg"
 width="191.000000pt" height="193.000000pt" viewBox="0 0 191.000000 193.000000"
 preserveAspectRatio="xMidYMid meet">

<g transform="translate(0.000000,193.000000) scale(0.100000,-0.100000)"
fill="#000000" stroke="none">
<path d="M0 965 l0 -965 955 0 955 0 0 965 0 965 -955 0 -955 0 0 -965z m832
348 c14 -16 44 -54 68 -85 23 -32 46 -58 51 -58 4 0 36 35 70 78 65 79 78 92
92 92 12 0 58 -50 117 -129 l50 -66 -2 -235 -3 -235 -320 0 -320 0 -3 237 -2
236 51 69 c65 86 100 123 114 123 6 0 23 -12 37 -27z"/>
<path d="M722 971 c-34 -44 -59 -82 -54 -84 6 -4 213 -2 250 2 9 0 -1 19 -25
50 -21 27 -49 63 -62 80 -13 17 -29 31 -36 31 -6 0 -39 -36 -73 -79z"/>
<path d="M1090 1043 c0 -5 -25 -39 -55 -77 -40 -50 -52 -72 -43 -77 7 -3 65
-6 128 -5 91 1 114 4 112 15 -6 27 -107 150 -124 150 -10 1 -18 -2 -18 -6z"/>
</g>
</svg>
