<svg id="svg" version="1.1" xmlns="http://www.w3.org/2000/svg" xmlns:xlink="http://www.w3.org/1999/xlink" width="400" height="404.18848167539267" viewBox="0, 0, 400,404.18848167539267"><g id="svgg"><path id="path0" d="M185.600 62.265 C 178.414 62.766,174.837 63.334,171.044 64.577 C 168.783 65.317,165.363 66.115,163.443 66.350 C 161.020 66.646,159.010 67.198,156.876 68.153 C 155.184 68.910,152.450 69.921,150.800 70.399 C 149.150 70.878,147.170 71.634,146.400 72.081 C 145.630 72.527,143.560 73.423,141.800 74.071 C 140.040 74.719,137.790 75.760,136.800 76.383 C 135.810 77.007,133.470 78.314,131.600 79.287 C 129.730 80.261,126.868 81.945,125.239 83.029 C 123.611 84.113,121.451 85.516,120.440 86.147 C 118.736 87.209,114.622 90.292,109.149 94.607 C 105.788 97.257,93.854 109.348,91.051 112.943 C 86.476 118.809,84.011 122.195,82.904 124.132 C 82.297 125.195,81.285 126.725,80.656 127.532 C 80.027 128.340,78.836 130.350,78.009 132.000 C 77.182 133.650,75.330 137.284,73.893 140.075 C 72.457 142.866,70.878 146.376,70.385 147.875 C 69.892 149.374,68.964 151.649,68.323 152.931 C 67.682 154.213,66.799 156.701,66.361 158.460 C 65.923 160.220,65.226 162.519,64.811 163.571 C 61.061 173.085,58.024 202.956,59.826 212.600 C 60.155 214.360,60.685 217.870,61.003 220.400 C 62.709 233.932,62.850 234.679,64.372 238.170 C 64.845 239.253,65.660 241.954,66.184 244.171 C 66.708 246.388,67.773 249.530,68.551 251.153 C 69.329 252.776,70.164 255.062,70.407 256.232 C 70.650 257.402,71.311 259.042,71.877 259.876 C 72.443 260.710,73.588 262.788,74.422 264.493 C 75.255 266.199,76.204 267.861,76.530 268.187 C 76.856 268.513,77.617 270.073,78.221 271.655 C 78.825 273.236,79.923 275.198,80.660 276.014 C 81.397 276.829,82.000 277.626,82.000 277.784 C 82.000 278.101,87.110 285.423,89.593 288.663 C 90.462 289.798,91.724 291.118,92.396 291.597 C 93.068 292.076,93.955 293.127,94.367 293.934 C 96.327 297.768,110.705 310.540,120.400 317.057 C 122.930 318.758,125.825 320.905,126.833 321.828 C 128.105 322.993,129.175 323.593,130.328 323.788 C 131.242 323.942,132.625 324.500,133.402 325.027 C 135.548 326.484,144.243 330.564,147.400 331.596 C 148.940 332.099,151.068 332.946,152.129 333.477 C 153.972 334.400,159.025 335.997,162.000 336.598 C 162.770 336.753,165.115 337.383,167.211 337.998 C 169.307 338.613,173.087 339.322,175.611 339.574 C 178.135 339.826,182.540 340.423,185.400 340.901 C 192.819 342.141,205.390 342.141,213.600 340.902 C 216.790 340.421,221.650 339.819,224.400 339.564 C 228.093 339.222,230.445 338.751,233.400 337.762 C 235.600 337.025,239.020 336.049,241.000 335.592 C 242.980 335.136,245.714 334.236,247.076 333.593 C 248.438 332.950,250.418 332.209,251.476 331.946 C 253.508 331.443,255.936 330.443,257.600 329.427 C 258.150 329.090,260.130 328.088,262.000 327.198 C 268.172 324.263,270.756 322.785,276.200 319.075 C 277.080 318.476,279.060 317.145,280.600 316.119 C 289.183 310.399,303.324 297.258,308.707 290.000 C 316.150 279.965,317.410 278.163,319.193 275.000 C 319.937 273.680,320.939 272.060,321.420 271.400 C 322.534 269.873,327.368 259.914,328.021 257.800 C 328.293 256.920,329.106 255.030,329.827 253.600 C 330.548 252.170,331.436 249.840,331.800 248.423 C 332.164 247.006,332.983 244.696,333.621 243.290 C 334.330 241.727,335.193 238.530,335.841 235.067 C 336.424 231.950,337.310 228.410,337.809 227.200 C 339.144 223.964,339.801 211.269,339.463 195.253 C 339.192 182.414,339.043 181.099,336.898 172.600 C 336.232 169.960,335.510 166.621,335.293 165.180 C 335.076 163.739,334.317 161.233,333.605 159.612 C 332.894 157.990,331.963 155.408,331.538 153.873 C 331.112 152.338,330.323 150.329,329.784 149.409 C 329.245 148.489,328.453 146.717,328.024 145.471 C 327.596 144.225,326.445 141.720,325.468 139.903 C 324.491 138.086,323.396 135.684,323.035 134.565 C 322.669 133.429,321.832 132.014,321.143 131.365 C 320.464 130.724,319.431 129.210,318.848 128.000 C 318.265 126.790,317.160 124.919,316.394 123.843 C 315.627 122.766,314.156 120.696,313.124 119.243 C 310.884 116.087,307.997 112.531,305.800 110.222 C 304.920 109.297,302.400 106.614,300.200 104.259 C 294.254 97.896,285.325 90.205,280.045 86.899 C 279.079 86.295,277.778 85.382,277.153 84.871 C 275.836 83.796,272.121 81.635,267.006 78.970 C 265.030 77.940,262.870 76.694,262.206 76.200 C 261.543 75.705,259.825 74.917,258.388 74.447 C 256.951 73.978,255.133 73.157,254.348 72.623 C 253.563 72.090,251.769 71.359,250.360 70.998 C 248.952 70.638,246.360 69.743,244.600 69.008 C 240.581 67.331,239.583 67.040,234.392 66.035 C 232.077 65.587,228.297 64.681,225.992 64.022 C 220.088 62.335,198.237 61.385,185.600 62.265 M235.894 126.707 C 237.046 127.308,238.486 128.461,239.094 129.269 C 241.398 132.329,243.897 135.524,246.798 139.120 C 248.449 141.166,250.430 143.692,251.200 144.733 C 251.970 145.774,254.760 149.286,257.400 152.539 C 260.040 155.791,262.740 159.300,263.400 160.338 C 264.060 161.375,265.005 162.738,265.500 163.366 L 266.400 164.508 266.400 189.267 C 266.400 210.370,266.311 214.238,265.800 215.462 C 265.057 217.241,265.059 219.097,265.808 222.200 C 266.548 225.263,266.675 257.891,265.956 259.955 C 265.658 260.810,264.968 261.520,263.856 262.114 L 262.200 263.000 201.800 263.120 C 135.816 263.252,137.147 263.282,135.154 261.618 L 133.800 260.488 133.674 242.827 C 133.535 223.418,133.595 222.814,135.944 219.999 L 137.076 218.644 138.227 219.549 C 139.339 220.425,139.642 220.453,147.389 220.415 C 151.795 220.394,158.640 220.387,162.600 220.401 C 195.127 220.517,195.775 220.476,196.513 218.261 C 196.833 217.300,196.620 216.903,194.497 214.494 C 193.191 213.012,191.443 210.810,190.612 209.600 C 189.781 208.390,188.614 206.860,188.018 206.200 C 187.422 205.540,186.590 204.531,186.168 203.959 C 181.554 197.700,177.840 192.814,177.065 191.985 C 176.544 191.427,175.667 190.257,175.117 189.385 C 172.791 185.702,169.009 182.800,166.533 182.800 L 164.296 182.800 161.548 185.625 C 160.037 187.179,158.800 188.623,158.800 188.834 C 158.800 189.045,158.120 189.979,157.289 190.909 C 156.458 191.839,154.438 194.400,152.801 196.600 C 151.163 198.800,149.098 201.435,148.212 202.456 C 147.325 203.476,145.700 205.538,144.600 207.038 C 143.500 208.537,141.857 210.492,140.949 211.382 C 140.042 212.272,138.878 213.775,138.364 214.722 C 137.549 216.220,137.297 216.412,136.414 216.200 C 133.629 215.531,133.554 214.760,133.642 187.980 L 133.720 164.378 134.671 162.325 C 135.194 161.196,136.202 159.613,136.911 158.808 C 137.620 158.003,139.100 156.210,140.200 154.825 C 141.300 153.440,142.959 151.428,143.887 150.355 C 144.814 149.282,146.208 147.458,146.984 146.302 C 147.760 145.146,149.477 142.940,150.801 141.400 C 152.125 139.860,153.780 137.790,154.479 136.800 C 162.624 125.262,166.819 123.394,172.534 128.760 C 173.378 129.552,174.414 130.871,174.837 131.690 C 175.260 132.510,176.370 134.076,177.303 135.172 C 179.231 137.434,181.185 139.920,183.772 143.400 C 194.948 158.436,197.461 160.792,201.113 159.657 C 203.419 158.940,208.975 153.177,210.790 149.620 C 211.239 148.740,212.370 147.137,213.303 146.057 C 214.236 144.978,215.759 143.128,216.687 141.947 C 217.614 140.766,219.144 138.832,220.087 137.648 C 221.029 136.464,222.496 134.484,223.346 133.248 C 227.217 127.617,229.319 126.029,233.400 125.651 C 233.620 125.630,234.742 126.105,235.894 126.707 M230.600 183.241 C 228.704 183.823,225.614 187.259,222.275 192.500 C 221.469 193.765,220.652 194.800,220.459 194.800 C 220.267 194.800,219.589 195.565,218.954 196.500 C 218.319 197.435,217.575 198.380,217.301 198.600 C 217.026 198.820,216.216 199.832,215.501 200.849 C 212.806 204.679,205.097 214.420,203.851 215.570 C 202.431 216.880,202.444 218.548,203.882 219.491 C 206.232 221.031,260.556 220.696,263.700 219.122 C 265.146 218.399,264.573 216.672,262.621 215.870 C 261.322 215.335,260.514 214.625,259.618 213.227 C 258.943 212.176,258.012 210.975,257.549 210.558 C 257.086 210.141,256.158 208.990,255.487 208.000 C 253.923 205.692,251.092 202.059,248.800 199.417 C 247.810 198.276,246.190 196.220,245.200 194.849 C 244.210 193.477,242.495 191.240,241.388 189.877 C 240.281 188.515,239.055 186.894,238.662 186.275 C 236.995 183.647,233.527 182.342,230.600 183.241 " stroke="none" fill="#eb3129" fill-rule="evenodd"></path><path id="path1" d="M231.297 126.024 C 228.793 126.517,226.610 128.501,223.346 133.248 C 222.496 134.484,221.029 136.464,220.087 137.648 C 219.144 138.832,217.614 140.766,216.687 141.947 C 215.759 143.128,214.236 144.978,213.303 146.057 C 212.370 147.137,211.239 148.740,210.790 149.620 C 208.975 153.177,203.419 158.940,201.113 159.657 C 197.461 160.792,194.948 158.436,183.772 143.400 C 181.185 139.920,179.231 137.434,177.303 135.172 C 176.370 134.076,175.260 132.510,174.837 131.690 C 174.414 130.871,173.378 129.552,172.534 128.760 C 166.819 123.394,162.624 125.262,154.479 136.800 C 153.780 137.790,152.125 139.860,150.801 141.400 C 149.477 142.940,147.760 145.146,146.984 146.302 C 146.208 147.458,144.814 149.282,143.887 150.355 C 142.959 151.428,141.300 153.440,140.200 154.825 C 139.100 156.210,137.620 158.003,136.911 158.808 C 136.202 159.613,135.194 161.196,134.671 162.325 L 133.720 164.378 133.642 187.980 C 133.554 214.760,133.629 215.531,136.414 216.200 C 137.297 216.412,137.549 216.220,138.364 214.722 C 138.878 213.775,140.042 212.272,140.949 211.382 C 141.857 210.492,143.500 208.537,144.600 207.038 C 145.700 205.538,147.325 203.476,148.212 202.456 C 149.098 201.435,151.163 198.800,152.801 196.600 C 154.438 194.400,156.458 191.839,157.289 190.909 C 158.120 189.979,158.800 189.045,158.800 188.834 C 158.800 188.623,160.037 187.179,161.548 185.625 L 164.296 182.800 166.533 182.800 C 169.009 182.800,172.791 185.702,175.117 189.385 C 175.667 190.257,176.544 191.427,177.065 191.985 C 177.840 192.814,181.554 197.700,186.168 203.959 C 186.590 204.531,187.422 205.540,188.018 206.200 C 188.614 206.860,189.781 208.390,190.612 209.600 C 191.443 210.810,193.191 213.012,194.497 214.494 C 196.620 216.903,196.833 217.300,196.513 218.261 C 195.775 220.476,195.127 220.517,162.600 220.401 C 158.640 220.387,151.795 220.394,147.389 220.415 C 139.642 220.453,139.339 220.425,138.227 219.549 L 137.076 218.644 135.944 219.999 C 133.595 222.814,133.535 223.418,133.674 242.827 L 133.800 260.488 135.154 261.618 C 137.147 263.282,135.816 263.252,201.800 263.120 L 262.200 263.000 263.856 262.114 C 264.968 261.520,265.658 260.810,265.956 259.955 C 266.675 257.891,266.548 225.263,265.808 222.200 C 265.059 219.097,265.057 217.241,265.800 215.462 C 266.311 214.238,266.400 210.370,266.400 189.267 L 266.400 164.508 265.500 163.366 C 265.005 162.738,264.060 161.375,263.400 160.338 C 262.740 159.300,260.040 155.791,257.400 152.539 C 254.760 149.286,251.970 145.774,251.200 144.733 C 250.430 143.692,248.449 141.166,246.798 139.120 C 243.897 135.524,241.398 132.329,239.094 129.269 C 238.084 127.928,234.361 125.561,233.400 125.651 C 233.180 125.671,232.233 125.839,231.297 126.024 M236.096 183.975 C 237.115 184.621,238.270 185.656,238.662 186.275 C 239.055 186.894,240.281 188.515,241.388 189.877 C 242.495 191.240,244.210 193.477,245.200 194.849 C 246.190 196.220,247.810 198.276,248.800 199.417 C 251.092 202.059,253.923 205.692,255.487 208.000 C 256.158 208.990,257.086 210.141,257.549 210.558 C 258.012 210.975,258.943 212.176,259.618 213.227 C 260.514 214.625,261.322 215.335,262.621 215.870 C 264.573 216.672,265.146 218.399,263.700 219.122 C 260.556 220.696,206.232 221.031,203.882 219.491 C 202.444 218.548,202.431 216.880,203.851 215.570 C 205.097 214.420,212.806 204.679,215.501 200.849 C 216.216 199.832,217.026 198.820,217.301 198.600 C 217.575 198.380,218.319 197.435,218.954 196.500 C 219.589 195.565,220.267 194.800,220.459 194.800 C 220.652 194.800,221.469 193.765,222.275 192.500 C 228.104 183.352,231.657 181.160,236.096 183.975 " stroke="none" fill="#fbeeed" fill-rule="evenodd"></path><path id="path2" d="M0.000 203.000 L 0.000 404.000 200.000 404.000 L 400.000 404.000 400.000 203.000 L 400.000 2.000 200.000 2.000 L 0.000 2.000 0.000 203.000 M211.600 62.006 C 218.119 62.306,221.427 62.635,223.600 63.200 C 225.250 63.628,228.670 64.440,231.200 65.003 C 233.730 65.566,236.889 66.274,238.221 66.578 C 239.552 66.881,242.342 67.851,244.421 68.734 C 246.499 69.617,249.261 70.532,250.558 70.767 C 251.855 71.002,253.475 71.550,254.158 71.984 C 254.841 72.419,256.113 73.085,256.985 73.465 C 257.856 73.844,259.476 74.645,260.585 75.243 C 261.693 75.842,263.866 76.949,265.413 77.704 C 266.961 78.458,269.322 79.823,270.662 80.738 C 272.001 81.652,273.255 82.401,273.449 82.402 C 273.642 82.403,274.717 83.099,275.837 83.948 C 276.958 84.798,278.758 85.996,279.837 86.612 C 280.917 87.227,282.250 88.122,282.800 88.599 C 283.350 89.076,284.493 89.861,285.340 90.343 C 286.807 91.179,288.457 92.515,293.555 97.000 C 294.805 98.100,297.622 100.977,299.814 103.393 C 302.006 105.809,304.403 108.318,305.139 108.969 C 305.876 109.619,307.136 111.098,307.939 112.254 C 308.743 113.410,310.480 115.642,311.800 117.213 C 314.266 120.148,316.772 123.880,318.640 127.400 C 319.224 128.500,320.374 130.134,321.196 131.032 C 322.048 131.962,322.991 133.594,323.392 134.832 C 323.777 136.024,324.623 137.843,325.271 138.874 C 325.920 139.905,326.968 142.094,327.602 143.740 C 328.236 145.386,329.297 147.807,329.960 149.121 C 330.623 150.434,331.384 152.384,331.651 153.454 C 331.918 154.525,332.736 156.685,333.469 158.255 C 334.467 160.393,334.997 162.399,335.584 166.255 C 336.014 169.085,336.919 173.200,337.594 175.400 C 340.346 184.367,340.638 221.459,338.003 227.328 C 337.527 228.388,336.621 231.928,335.988 235.194 C 335.356 238.460,334.398 242.183,333.859 243.466 C 333.320 244.750,332.335 247.420,331.669 249.400 C 329.378 256.214,324.665 266.504,321.136 272.400 C 319.333 275.411,314.184 283.068,313.133 284.300 C 312.524 285.015,311.416 286.545,310.672 287.700 C 307.872 292.044,295.981 304.404,289.408 309.800 C 286.021 312.581,278.663 317.952,277.025 318.840 C 276.159 319.309,274.322 320.557,272.944 321.613 C 271.566 322.670,270.025 323.653,269.519 323.799 C 268.055 324.221,265.920 325.248,264.337 326.292 C 263.533 326.823,261.582 327.783,260.003 328.425 C 258.424 329.068,256.634 329.949,256.025 330.382 C 255.417 330.815,253.546 331.546,251.869 332.007 C 250.191 332.467,247.510 333.440,245.909 334.169 C 244.309 334.898,241.290 335.907,239.200 336.411 C 237.110 336.915,234.140 337.754,232.600 338.275 C 231.060 338.796,228.000 339.397,225.800 339.610 C 217.114 340.452,213.615 340.874,209.200 341.610 C 201.516 342.891,194.550 343.057,189.800 342.070 C 184.734 341.018,181.930 340.584,175.204 339.809 C 171.963 339.435,167.890 338.637,165.004 337.810 C 162.362 337.053,158.961 336.146,157.447 335.796 C 155.933 335.445,153.593 334.601,152.247 333.921 C 150.901 333.241,148.286 332.172,146.435 331.546 C 144.585 330.919,142.785 330.159,142.435 329.855 C 142.086 329.552,140.054 328.544,137.920 327.617 C 135.786 326.689,133.854 325.706,133.626 325.431 C 133.398 325.157,132.444 324.701,131.506 324.420 C 128.244 323.440,127.561 323.082,126.483 321.787 C 125.888 321.070,124.474 319.941,123.343 319.278 C 121.479 318.185,118.616 316.189,113.600 312.487 C 111.296 310.787,108.792 308.721,105.977 306.200 C 104.749 305.100,103.126 303.652,102.372 302.983 C 99.641 300.561,95.187 295.543,94.401 294.003 C 93.959 293.136,92.951 291.988,92.161 291.451 C 91.370 290.914,90.156 289.653,89.462 288.650 C 88.768 287.646,86.805 284.856,85.100 282.448 C 83.395 280.041,82.000 277.906,82.000 277.705 C 82.000 277.504,81.533 276.903,80.962 276.370 C 80.391 275.836,79.468 274.590,78.911 273.600 C 78.353 272.610,77.301 270.800,76.572 269.578 C 75.843 268.355,74.847 266.285,74.359 264.978 C 73.871 263.670,72.873 261.729,72.142 260.664 C 71.411 259.600,70.431 257.440,69.966 255.864 C 69.500 254.289,68.688 252.051,68.161 250.892 C 67.634 249.733,66.498 246.313,65.635 243.292 C 64.772 240.271,63.703 236.540,63.259 235.000 C 62.508 232.397,62.214 230.841,61.181 224.000 C 60.965 222.570,60.595 220.140,60.359 218.600 C 59.031 209.933,58.816 207.695,58.816 202.600 C 58.816 195.345,59.406 190.348,62.408 172.200 C 63.230 167.229,63.931 164.168,64.434 163.351 C 64.856 162.665,65.577 160.595,66.035 158.751 C 66.494 156.908,67.663 153.575,68.634 151.344 C 69.605 149.113,70.400 147.156,70.400 146.994 C 70.400 146.626,75.000 136.952,75.818 135.600 C 76.150 135.050,76.940 133.610,77.573 132.400 C 83.272 121.498,101.361 99.596,108.666 94.752 C 109.787 94.008,112.263 92.080,114.167 90.468 C 116.072 88.855,118.585 86.965,119.753 86.268 C 120.921 85.570,123.436 83.953,125.342 82.673 C 127.248 81.393,130.340 79.637,132.215 78.771 C 134.090 77.905,136.293 76.756,137.112 76.219 C 137.930 75.681,140.129 74.681,141.997 73.995 C 143.865 73.310,145.683 72.487,146.036 72.168 C 146.389 71.848,148.730 70.896,151.239 70.052 C 153.748 69.209,156.733 68.045,157.873 67.466 C 159.275 66.754,161.087 66.282,163.473 66.006 C 165.413 65.782,168.800 65.053,171.000 64.386 C 178.656 62.065,193.694 61.184,211.600 62.006 " stroke="none" fill="#0c7bbc" fill-rule="evenodd"></path><path id="path3" d="M0.000 1.000 L 0.000 2.000 200.000 2.000 L 400.000 2.000 400.000 1.000 L 400.000 0.000 200.000 0.000 L 0.000 0.000 0.000 1.000 M196.100 61.898 C 198.025 61.971,201.175 61.971,203.100 61.898 C 205.025 61.825,203.450 61.765,199.600 61.765 C 195.750 61.765,194.175 61.825,196.100 61.898 M211.705 62.287 C 212.314 62.379,213.214 62.377,213.705 62.282 C 214.197 62.187,213.700 62.111,212.600 62.114 C 211.500 62.117,211.097 62.195,211.705 62.287 M219.100 62.682 C 219.595 62.778,220.405 62.778,220.900 62.682 C 221.395 62.587,220.990 62.509,220.000 62.509 C 219.010 62.509,218.605 62.587,219.100 62.682 M230.600 65.227 C 232.140 65.642,233.670 65.970,234.000 65.955 C 234.330 65.940,233.340 65.588,231.800 65.173 C 230.260 64.758,228.730 64.430,228.400 64.445 C 228.070 64.460,229.060 64.812,230.600 65.227 M162.300 66.282 C 162.795 66.378,163.605 66.378,164.100 66.282 C 164.595 66.187,164.190 66.109,163.200 66.109 C 162.210 66.109,161.805 66.187,162.300 66.282 M159.200 66.818 C 158.762 67.115,158.924 67.152,159.800 66.956 C 161.271 66.627,161.590 66.398,160.567 66.406 C 160.145 66.409,159.530 66.595,159.200 66.818 M251.602 71.331 C 252.373 71.589,253.813 72.276,254.802 72.858 C 255.791 73.441,257.050 74.028,257.600 74.165 C 258.179 74.308,257.843 73.995,256.800 73.420 C 253.280 71.481,251.790 70.818,251.000 70.840 C 250.507 70.853,250.739 71.042,251.602 71.331 M264.833 77.752 C 265.241 78.124,269.200 79.993,269.200 79.813 C 269.200 79.588,265.380 77.600,264.947 77.600 C 264.793 77.600,264.742 77.668,264.833 77.752 M126.100 82.046 C 124.737 82.919,124.295 83.506,125.500 82.843 C 126.418 82.339,127.856 81.227,127.600 81.219 C 127.490 81.216,126.815 81.588,126.100 82.046 M117.700 87.574 C 116.809 88.219,115.953 88.952,115.798 89.203 C 115.582 89.553,118.712 87.354,119.567 86.556 C 120.187 85.976,119.047 86.598,117.700 87.574 M284.574 90.078 C 284.999 90.365,286.079 91.244,286.974 92.030 C 287.868 92.817,289.019 93.744,289.531 94.090 C 290.043 94.436,292.383 96.520,294.731 98.722 C 300.175 103.826,300.153 103.808,297.805 101.200 C 294.721 97.774,287.637 91.629,285.340 90.387 C 284.493 89.930,284.148 89.790,284.574 90.078 M104.000 98.785 C 101.910 100.752,100.380 102.367,100.600 102.373 C 100.820 102.379,102.610 100.768,104.579 98.792 C 109.158 94.196,108.880 94.193,104.000 98.785 M301.000 105.200 C 301.859 106.080,302.652 106.800,302.762 106.800 C 302.872 106.800,302.259 106.080,301.400 105.200 C 300.541 104.320,299.748 103.600,299.638 103.600 C 299.528 103.600,300.141 104.320,301.000 105.200 M95.986 107.100 L 93.800 109.400 96.100 107.214 C 98.237 105.182,98.583 104.800,98.286 104.800 C 98.224 104.800,97.189 105.835,95.986 107.100 M304.247 108.579 C 304.370 108.897,305.129 109.646,305.935 110.242 L 307.400 111.326 305.819 109.663 C 304.082 107.836,303.919 107.724,304.247 108.579 M313.655 120.010 C 314.395 121.006,315.325 122.266,315.723 122.810 C 316.165 123.415,316.103 123.177,315.564 122.200 C 315.079 121.320,314.149 120.060,313.496 119.400 C 312.372 118.262,312.381 118.294,313.655 120.010 M320.800 131.000 C 321.546 131.770,322.247 132.400,322.357 132.400 C 322.467 132.400,321.946 131.770,321.200 131.000 C 320.454 130.230,319.753 129.600,319.643 129.600 C 319.533 129.600,320.054 130.230,320.800 131.000 M76.497 134.310 C 75.780 135.529,75.250 136.583,75.319 136.652 C 75.388 136.721,76.044 135.788,76.778 134.578 C 77.511 133.368,78.041 132.314,77.956 132.236 C 77.870 132.157,77.213 133.091,76.497 134.310 M325.673 140.270 C 326.400 141.628,327.053 142.680,327.125 142.608 C 327.308 142.425,325.798 139.565,325.008 138.600 C 324.648 138.160,324.947 138.911,325.673 140.270 M328.400 146.549 C 328.400 146.981,329.989 150.000,330.216 150.000 C 330.326 150.000,330.030 149.235,329.559 148.300 C 328.632 146.461,328.400 146.111,328.400 146.549 M68.476 151.676 C 67.777 153.250,67.266 154.599,67.341 154.674 C 67.416 154.749,68.064 153.537,68.781 151.981 C 69.498 150.425,70.009 149.076,69.916 148.983 C 69.824 148.890,69.176 150.102,68.476 151.676 M332.029 155.684 C 332.013 155.840,332.625 157.370,333.388 159.084 C 334.152 160.798,334.777 161.930,334.778 161.600 C 334.780 160.982,332.081 155.175,332.029 155.684 M64.276 163.579 C 63.901 164.214,63.501 165.604,63.389 166.667 L 63.184 168.600 63.789 166.479 C 64.122 165.312,64.590 163.992,64.830 163.545 C 65.515 162.264,65.035 162.294,64.276 163.579 M59.792 188.538 C 59.639 189.969,59.594 191.378,59.693 191.670 C 59.791 191.961,60.003 190.878,60.164 189.261 C 60.325 187.645,60.369 186.236,60.263 186.130 C 60.157 186.024,59.945 187.108,59.792 188.538 M339.301 187.800 C 339.305 188.680,339.387 188.993,339.483 188.495 C 339.579 187.998,339.575 187.278,339.475 186.895 C 339.375 186.513,339.296 186.920,339.301 187.800 M59.293 193.600 C 59.293 194.370,59.375 194.685,59.476 194.300 C 59.576 193.915,59.576 193.285,59.476 192.900 C 59.375 192.515,59.293 192.830,59.293 193.600 M339.763 201.200 C 339.763 204.830,339.823 206.315,339.898 204.500 C 339.972 202.685,339.972 199.715,339.898 197.900 C 339.823 196.085,339.763 197.570,339.763 201.200 M58.965 202.400 C 58.965 206.250,59.025 207.825,59.098 205.900 C 59.171 203.975,59.171 200.825,59.098 198.900 C 59.025 196.975,58.965 198.550,58.965 202.400 M59.293 211.200 C 59.293 211.970,59.375 212.285,59.476 211.900 C 59.576 211.515,59.576 210.885,59.476 210.500 C 59.375 210.115,59.293 210.430,59.293 211.200 M59.658 213.600 C 59.645 214.150,59.879 215.680,60.176 217.000 C 60.474 218.320,60.729 218.950,60.742 218.400 C 60.755 217.850,60.521 216.320,60.224 215.000 C 59.926 213.680,59.671 213.050,59.658 213.600 M60.914 221.800 C 60.917 222.900,60.995 223.303,61.087 222.695 C 61.179 222.086,61.177 221.186,61.082 220.695 C 60.987 220.203,60.911 220.700,60.914 221.800 M338.914 221.800 C 338.917 222.900,338.995 223.303,339.087 222.695 C 339.179 222.086,339.177 221.186,339.082 220.695 C 338.987 220.203,338.911 220.700,338.914 221.800 M64.856 240.000 C 64.856 240.330,65.011 240.960,65.200 241.400 C 65.417 241.904,65.544 241.978,65.544 241.600 C 65.544 241.270,65.389 240.640,65.200 240.200 C 64.983 239.696,64.856 239.622,64.856 240.000 M333.665 243.017 C 332.995 244.488,333.123 244.802,333.847 243.465 C 334.186 242.840,334.388 242.254,334.296 242.163 C 334.205 242.071,333.921 242.456,333.665 243.017 M332.444 246.044 C 332.198 246.751,332.066 247.400,332.152 247.485 C 332.238 247.571,332.509 247.062,332.756 246.356 C 333.002 245.649,333.134 245.000,333.048 244.915 C 332.962 244.829,332.691 245.338,332.444 246.044 M68.839 252.000 C 68.824 252.110,69.175 253.280,69.620 254.600 C 70.064 255.920,70.340 256.434,70.232 255.743 C 70.056 254.609,68.904 251.514,68.839 252.000 M329.366 254.465 C 328.582 255.982,327.144 260.077,327.330 260.263 C 327.403 260.336,328.097 258.776,328.872 256.798 C 330.330 253.079,330.502 252.270,329.366 254.465 M324.780 264.839 C 324.320 265.740,324.013 266.546,324.097 266.630 C 324.181 266.714,324.641 265.976,325.119 264.991 C 326.209 262.747,325.915 262.615,324.780 264.839 M74.628 265.600 C 74.769 266.150,75.692 267.950,76.678 269.600 C 77.664 271.250,78.343 272.150,78.185 271.600 C 77.810 270.291,76.779 268.259,76.348 267.979 C 76.160 267.857,75.639 267.047,75.189 266.179 C 74.701 265.236,74.475 265.003,74.628 265.600 M320.151 273.300 C 319.783 274.015,319.219 275.050,318.898 275.600 C 318.339 276.559,318.343 276.567,318.989 275.800 C 319.778 274.863,321.307 272.000,321.018 272.000 C 320.910 272.000,320.519 272.585,320.151 273.300 M301.590 297.859 C 299.756 299.735,299.224 300.433,300.212 299.663 C 301.589 298.590,305.095 294.800,304.710 294.800 C 304.638 294.800,303.234 296.177,301.590 297.859 M99.600 300.207 C 101.532 302.295,106.400 306.655,106.400 306.297 C 106.400 306.225,104.375 304.290,101.900 301.997 C 99.108 299.411,98.235 298.731,99.600 300.207 M279.724 316.591 C 277.884 317.830,276.127 319.506,277.638 318.579 C 278.164 318.257,281.600 315.698,281.967 315.356 C 282.535 314.825,281.499 315.395,279.724 316.591 M120.000 316.946 C 120.000 317.056,120.540 317.530,121.200 318.000 C 121.860 318.470,122.400 318.764,122.400 318.654 C 122.400 318.544,121.860 318.070,121.200 317.600 C 120.540 317.130,120.000 316.836,120.000 316.946 M271.060 322.411 C 269.772 323.285,268.882 324.000,269.081 324.000 C 269.584 324.000,273.044 321.776,273.376 321.239 C 273.775 320.594,273.623 320.670,271.060 322.411 M152.600 333.997 C 154.360 334.841,156.520 335.627,157.400 335.742 C 158.894 335.939,158.867 335.914,157.000 335.366 C 155.900 335.043,153.872 334.244,152.492 333.589 C 151.113 332.935,149.853 332.414,149.692 332.431 C 149.532 332.448,150.840 333.153,152.600 333.997 M237.801 336.307 C 236.482 336.652,235.582 336.990,235.801 337.058 C 236.021 337.125,237.460 336.841,239.000 336.426 C 240.540 336.012,241.440 335.674,241.000 335.676 C 240.560 335.678,239.121 335.962,237.801 336.307 M160.800 336.511 C 161.114 336.797,169.809 339.203,170.438 339.177 C 170.747 339.165,169.290 338.637,167.200 338.003 C 163.438 336.864,160.414 336.159,160.800 336.511 M226.500 339.476 C 226.885 339.576,227.515 339.576,227.900 339.476 C 228.285 339.375,227.970 339.293,227.200 339.293 C 226.430 339.293,226.115 339.375,226.500 339.476 M175.505 339.883 C 176.002 339.979,176.722 339.975,177.105 339.875 C 177.487 339.775,177.080 339.696,176.200 339.701 C 175.320 339.705,175.007 339.787,175.505 339.883 M222.500 339.876 C 222.885 339.976,223.515 339.976,223.900 339.876 C 224.285 339.775,223.970 339.693,223.200 339.693 C 222.430 339.693,222.115 339.775,222.500 339.876 M180.400 340.420 C 182.814 340.850,184.706 340.813,182.600 340.377 C 181.720 340.195,180.460 340.058,179.800 340.073 C 178.900 340.093,179.050 340.180,180.400 340.420 M188.800 341.828 C 193.010 342.765,193.892 342.830,199.200 342.595 C 207.490 342.228,209.421 341.726,201.757 341.930 C 198.167 342.026,193.561 341.896,191.357 341.638 C 189.181 341.382,186.680 341.090,185.800 340.989 C 184.920 340.887,186.270 341.265,188.800 341.828 " stroke="none" fill="#1c2424" fill-rule="evenodd"></path></g></svg>