<svg id="svg" version="1.1" xmlns="http://www.w3.org/2000/svg" xmlns:xlink="http://www.w3.org/1999/xlink" width="400" height="385.54216867469876" viewBox="0, 0, 400,385.54216867469876"><g id="svgg"><path id="path0" d="M116.876 97.007 C 110.974 97.891,106.210 100.497,101.446 105.447 C 98.307 108.710,97.340 109.461,94.696 110.694 C 88.472 113.598,85.627 118.177,88.804 120.179 C 93.721 123.279,94.157 123.655,95.128 125.627 C 96.231 127.866,96.171 128.374,94.483 131.126 C 93.291 133.070,91.803 136.636,91.803 137.549 C 91.803 137.872,92.667 139.050,93.723 140.166 C 98.384 145.095,98.587 149.570,94.510 157.482 C 91.619 163.091,91.006 166.392,90.982 176.480 C 90.959 186.406,92.174 194.377,94.129 197.123 C 94.585 197.764,95.614 199.628,96.416 201.266 C 98.637 205.804,104.699 213.201,109.682 217.454 C 113.208 220.463,118.955 224.881,121.438 226.491 C 125.837 229.343,133.325 236.368,134.448 238.696 C 136.453 242.849,135.495 245.040,130.955 246.687 C 127.542 247.925,127.387 248.081,127.074 250.587 C 126.691 253.652,126.998 254.026,132.954 257.758 C 140.104 262.239,140.129 262.267,139.677 265.464 C 139.373 267.610,139.048 268.338,137.508 270.320 L 135.697 272.653 136.797 274.701 C 138.444 277.766,140.237 278.626,145.387 278.821 C 149.826 278.990,155.675 278.342,157.763 277.451 C 168.113 273.031,172.065 272.910,181.549 276.717 C 194.240 281.811,205.516 279.092,208.888 270.124 C 209.489 268.524,209.640 267.635,209.387 267.182 C 209.029 266.543,202.785 261.433,200.177 259.644 C 198.932 258.790,195.178 253.870,195.178 253.092 C 195.178 252.604,197.990 250.113,199.302 249.438 C 208.650 244.628,250.739 243.941,263.755 248.385 C 265.604 249.016,268.918 250.061,271.119 250.706 C 273.320 251.351,276.704 252.555,278.640 253.382 C 280.576 254.208,283.674 255.346,285.524 255.910 C 287.374 256.473,290.151 257.515,291.696 258.224 C 293.240 258.932,296.199 260.052,298.272 260.712 C 300.344 261.371,302.969 262.435,304.105 263.076 C 305.240 263.717,307.623 264.771,309.401 265.418 C 311.178 266.065,312.980 266.916,313.404 267.309 C 316.111 269.815,321.921 271.552,323.492 270.325 C 324.919 269.210,323.337 264.257,320.392 260.620 C 319.677 259.738,318.785 258.409,318.408 257.666 C 317.803 256.474,315.701 253.510,310.885 247.059 C 310.093 245.998,309.177 244.609,308.849 243.973 C 308.522 243.337,307.417 241.923,306.393 240.832 C 302.342 236.514,300.531 233.916,299.840 231.429 L 299.169 229.015 302.043 226.358 C 303.624 224.897,306.082 223.100,307.505 222.365 C 308.927 221.631,310.936 220.290,311.969 219.387 C 313.001 218.483,314.678 217.169,315.694 216.467 C 317.686 215.091,317.818 214.404,316.585 211.820 C 315.994 210.582,313.724 210.305,309.790 210.990 C 308.427 211.227,305.645 211.574,303.608 211.761 C 296.911 212.374,286.104 213.703,281.196 214.518 C 275.505 215.462,274.121 215.376,264.741 213.497 C 253.519 211.250,249.099 208.271,243.729 199.336 C 241.207 195.141,241.575 192.010,244.882 189.521 C 246.360 188.408,251.949 183.462,253.971 181.476 C 256.706 178.790,258.447 176.604,261.336 172.228 C 266.587 164.274,267.554 159.721,264.533 157.179 C 263.240 156.091,263.047 156.069,259.819 156.622 C 255.854 157.303,253.436 156.732,252.379 154.866 C 251.082 152.576,251.248 151.818,254.156 146.765 C 255.620 144.222,257.362 141.193,258.029 140.034 C 259.180 138.032,259.487 136.267,259.257 132.967 C 259.158 131.546,254.494 131.534,251.754 132.949 C 251.155 133.259,248.638 134.214,246.161 135.071 C 243.685 135.928,241.106 136.965,240.431 137.375 C 239.756 137.786,237.499 138.812,235.417 139.656 C 233.334 140.500,231.190 141.512,230.654 141.904 C 229.208 142.960,226.547 144.261,224.127 145.094 C 222.950 145.498,221.341 146.257,220.551 146.780 C 219.761 147.303,217.244 148.354,214.958 149.116 C 212.671 149.878,209.499 151.068,207.907 151.761 C 189.115 159.942,168.909 157.234,163.140 145.760 C 161.431 142.360,161.405 142.095,162.076 134.897 C 162.768 127.477,160.717 117.289,157.632 112.825 C 152.736 105.740,144.146 99.910,134.812 97.340 C 131.906 96.540,121.307 96.343,116.876 97.007 M120.486 111.467 C 122.092 113.244,122.007 113.854,120.028 114.775 C 119.249 115.138,118.502 115.496,118.367 115.571 C 116.711 116.498,115.668 112.824,117.103 111.119 C 118.400 109.578,118.819 109.621,120.486 111.467 " stroke="none" fill="#d62d3a" fill-rule="evenodd"></path><path id="path1" d="M0.000 192.864 L 0.000 385.728 200.000 385.728 L 400.000 385.728 400.000 192.864 L 400.000 0.000 200.000 0.000 L 0.000 0.000 0.000 192.864 M134.812 97.340 C 144.146 99.910,152.736 105.740,157.632 112.825 C 160.717 117.289,162.768 127.477,162.076 134.897 C 161.405 142.095,161.431 142.360,163.140 145.760 C 168.909 157.234,189.115 159.942,207.907 151.761 C 209.499 151.068,212.671 149.878,214.958 149.116 C 217.244 148.354,219.761 147.303,220.551 146.780 C 221.341 146.257,222.950 145.498,224.127 145.094 C 226.547 144.261,229.208 142.960,230.654 141.904 C 231.190 141.512,233.334 140.500,235.417 139.656 C 237.499 138.812,239.756 137.786,240.431 137.375 C 241.106 136.965,243.685 135.928,246.161 135.071 C 248.638 134.214,251.155 133.259,251.754 132.949 C 254.494 131.534,259.158 131.546,259.257 132.967 C 259.487 136.267,259.180 138.032,258.029 140.034 C 257.362 141.193,255.620 144.222,254.156 146.765 C 251.248 151.818,251.082 152.576,252.379 154.866 C 253.436 156.732,255.854 157.303,259.819 156.622 C 263.047 156.069,263.240 156.091,264.533 157.179 C 268.577 160.582,263.609 172.012,253.971 181.476 C 251.949 183.462,246.360 188.408,244.882 189.521 C 241.575 192.010,241.207 195.141,243.729 199.336 C 249.099 208.271,253.519 211.250,264.741 213.497 C 274.121 215.376,275.505 215.462,281.196 214.518 C 286.104 213.703,296.911 212.374,303.608 211.761 C 305.645 211.574,308.427 211.227,309.790 210.990 C 313.724 210.305,315.994 210.582,316.585 211.820 C 317.818 214.404,317.686 215.091,315.694 216.467 C 314.678 217.169,313.001 218.483,311.969 219.387 C 310.936 220.290,308.927 221.631,307.505 222.365 C 306.082 223.100,303.624 224.897,302.043 226.358 L 299.169 229.015 299.840 231.429 C 300.531 233.916,302.342 236.514,306.393 240.832 C 307.417 241.923,308.522 243.337,308.849 243.973 C 309.177 244.609,310.093 245.998,310.885 247.059 C 315.701 253.510,317.803 256.474,318.408 257.666 C 318.785 258.409,319.677 259.738,320.392 260.620 C 323.337 264.257,324.919 269.210,323.492 270.325 C 321.921 271.552,316.111 269.815,313.404 267.309 C 312.980 266.916,311.178 266.065,309.401 265.418 C 307.623 264.771,305.240 263.717,304.105 263.076 C 302.969 262.435,300.344 261.371,298.272 260.712 C 296.199 260.052,293.240 258.932,291.696 258.224 C 290.151 257.515,287.374 256.473,285.524 255.910 C 283.674 255.346,280.576 254.208,278.640 253.382 C 276.704 252.555,273.320 251.351,271.119 250.706 C 268.918 250.061,265.604 249.016,263.755 248.385 C 250.739 243.941,208.650 244.628,199.302 249.438 C 197.990 250.113,195.178 252.604,195.178 253.092 C 195.178 253.870,198.932 258.790,200.177 259.644 C 202.785 261.433,209.029 266.543,209.387 267.182 C 209.640 267.635,209.489 268.524,208.888 270.124 C 205.516 279.092,194.240 281.811,181.549 276.717 C 172.065 272.910,168.113 273.031,157.763 277.451 C 155.675 278.342,149.826 278.990,145.387 278.821 C 140.237 278.626,138.444 277.766,136.797 274.701 L 135.697 272.653 137.508 270.320 C 139.048 268.338,139.373 267.610,139.677 265.464 C 140.129 262.267,140.104 262.239,132.954 257.758 C 126.998 254.026,126.691 253.652,127.074 250.587 C 127.387 248.081,127.542 247.925,130.955 246.687 C 135.495 245.040,136.453 242.849,134.448 238.696 C 133.325 236.368,125.837 229.343,121.438 226.491 C 110.694 219.524,100.148 208.893,96.416 201.266 C 95.614 199.628,94.585 197.764,94.129 197.123 C 92.174 194.377,90.959 186.406,90.982 176.480 C 91.006 166.392,91.619 163.091,94.510 157.482 C 98.587 149.570,98.384 145.095,93.723 140.166 C 92.667 139.050,91.803 137.872,91.803 137.549 C 91.803 136.636,93.291 133.070,94.483 131.126 C 96.171 128.374,96.231 127.866,95.128 125.627 C 94.157 123.655,93.721 123.279,88.804 120.179 C 85.627 118.177,88.472 113.598,94.696 110.694 C 97.340 109.461,98.307 108.710,101.446 105.447 C 106.210 100.497,110.974 97.891,116.876 97.007 C 121.307 96.343,131.906 96.540,134.812 97.340 M117.103 111.119 C 115.668 112.824,116.711 116.498,118.367 115.571 C 118.502 115.496,119.249 115.138,120.028 114.775 C 122.007 113.854,122.092 113.244,120.486 111.467 C 118.819 109.621,118.400 109.578,117.103 111.119 " stroke="none" fill="#fcfbfb" fill-rule="evenodd"></path></g></svg>