<?xml version="1.0" standalone="no"?>
<!DOCTYPE svg PUBLIC "-//W3C//DTD SVG 20010904//EN"
 "http://www.w3.org/TR/2001/REC-SVG-20010904/DTD/svg10.dtd">
<svg version="1.0" xmlns="http://www.w3.org/2000/svg"
 width="83.000000pt" height="80.000000pt" viewBox="0 0 83.000000 80.000000"
 preserveAspectRatio="xMidYMid meet">

<g transform="translate(0.000000,80.000000) scale(0.100000,-0.100000)"
fill="#000000" stroke="none">
<path d="M212 578 c-23 -14 -30 -23 -21 -28 6 -5 9 -15 6 -24 -3 -8 -2 -18 3
-21 6 -3 5 -16 0 -31 -20 -50 -12 -74 40 -127 28 -28 46 -53 40 -57 -6 -4 -6
-16 3 -34 10 -23 17 -26 42 -23 16 2 42 1 56 -3 39 -11 58 3 36 28 -9 10 -14
22 -10 25 3 4 37 7 75 7 49 0 85 -7 128 -24 33 -14 57 -19 54 -13 -4 7 -16 25
-27 40 -18 27 -19 29 -1 48 18 20 18 20 -34 13 -40 -5 -57 -3 -77 10 -32 21
-32 36 0 66 29 27 32 40 9 40 -12 0 -15 6 -10 25 4 14 4 25 1 25 -2 0 -34 -12
-70 -27 -85 -35 -118 -27 -123 29 -2 26 -11 44 -29 58 -32 25 -50 25 -91 -2z
m43 -8 c3 -5 1 -10 -4 -10 -6 0 -11 5 -11 10 0 6 2 10 4 10 3 0 8 -4 11 -10z"/>
</g>
</svg>
