<?xml version="1.0" standalone="no"?>
<!DOCTYPE svg PUBLIC "-//W3C//DTD SVG 20010904//EN"
 "http://www.w3.org/TR/2001/REC-SVG-20010904/DTD/svg10.dtd">
<svg version="1.0" xmlns="http://www.w3.org/2000/svg"
 width="1600.000000pt" height="903.000000pt" viewBox="0 0 1600.000000 903.000000"
 preserveAspectRatio="xMidYMid meet">

<g transform="translate(0.000000,903.000000) scale(0.100000,-0.100000)"
fill="#000000" stroke="none">
<path d="M0 4515 l0 -4515 8000 0 8000 0 0 4515 0 4515 -8000 0 -8000 0 0
-4515z m10260 1408 c0 -1052 -4 -1770 -10 -1853 -55 -737 -314 -1324 -786
-1780 -357 -345 -792 -585 -1372 -755 l-82 -24 -123 35 c-413 120 -813 319
-1127 562 -117 91 -316 287 -413 407 -287 356 -482 815 -551 1300 -34 238 -36
352 -36 2088 l0 1737 2250 0 2250 0 0 -1717z"/>
<path d="M5933 5768 c4 -1785 3 -1766 47 -2008 178 -998 801 -1669 1875 -2021
l155 -51 155 51 c626 205 1088 511 1415 938 210 274 367 628 440 991 66 326
63 237 67 2105 l4 1697 -2081 0 -2081 0 4 -1702z m3582 1492 c149 -18 295 -71
295 -108 0 -22 -39 -234 -43 -239 -2 -2 -30 12 -62 31 -112 68 -241 95 -359
76 -185 -30 -295 -158 -313 -366 -12 -144 33 -282 119 -366 125 -122 362 -131
570 -21 38 20 70 34 72 32 1 -2 12 -57 23 -123 l20 -118 -63 -29 c-129 -59
-205 -74 -369 -74 -171 0 -233 13 -355 73 -93 45 -200 149 -248 239 -72 136
-98 364 -59 513 80 301 309 471 657 489 14 0 65 -4 115 -9z m-3025 -447 c0
-409 1 -430 21 -473 25 -55 62 -95 114 -123 33 -18 57 -22 140 -22 88 0 107 3
150 25 66 34 109 97 124 183 7 39 11 211 11 450 l0 387 150 0 150 0 0 -418 c0
-385 -2 -425 -20 -496 -37 -145 -121 -248 -255 -312 -107 -52 -196 -67 -350
-61 -189 8 -291 44 -393 140 -63 60 -96 113 -125 200 -20 59 -21 85 -24 505
l-2 442 154 0 155 0 0 -427z m1745 407 c141 -36 228 -110 259 -218 33 -120 9
-218 -74 -296 -27 -25 -54 -46 -60 -46 -23 0 -7 -17 34 -37 65 -32 112 -78
142 -139 23 -46 27 -69 27 -138 0 -68 -5 -92 -28 -144 -45 -100 -116 -156
-260 -203 -65 -21 -91 -23 -372 -27 l-303 -4 0 636 0 636 278 0 c246 0 288 -2
357 -20z m-1215 -1438 c36 -11 106 -35 155 -53 85 -32 97 -34 225 -34 l135 0
155 55 155 55 165 0 165 -1 155 -54 155 -55 135 0 c124 1 141 3 210 29 155 59
232 77 345 83 142 7 227 -7 392 -63 75 -26 161 -48 200 -52 l68 -7 3 -139 c1
-77 -1 -143 -6 -148 -16 -16 -161 12 -266 52 -142 54 -262 74 -391 66 -104 -6
-161 -20 -335 -82 -98 -35 -113 -38 -220 -38 -113 0 -118 1 -265 53 -271 94
-415 94 -688 0 -149 -52 -154 -53 -267 -53 -107 0 -122 3 -220 38 -161 57
-237 76 -335 82 -114 8 -226 -8 -334 -47 -137 -49 -208 -68 -269 -71 l-57 -3
1 145 1 145 67 7 c38 4 125 26 200 52 73 25 157 50 187 55 87 16 303 6 379
-17z m1000 -456 c0 -22 20 -172 120 -898 23 -161 56 -402 74 -536 18 -133 35
-244 37 -247 3 -2 180 288 393 645 214 358 390 650 391 650 1 0 -13 -66 -32
-147 -18 -82 -72 -312 -118 -513 -46 -201 -105 -454 -130 -562 -25 -108 -45
-200 -45 -204 0 -4 30 22 68 57 239 227 544 519 645 617 64 64 119 113 121
111 2 -2 -66 -173 -151 -379 -247 -598 -273 -663 -270 -666 2 -2 157 111 345
251 188 140 344 255 347 255 2 0 0 -10 -5 -22 -5 -13 -41 -103 -80 -201 -239
-604 -470 -915 -885 -1189 -146 -97 -403 -226 -608 -306 -242 -95 -210 -93
-373 -32 -76 29 -200 80 -274 113 -591 268 -914 575 -1173 1115 -59 124 -218
514 -212 520 1 2 157 -112 345 -252 189 -141 345 -255 346 -253 2 2 -91 232
-207 513 -116 280 -213 516 -217 524 -9 22 49 -30 283 -255 343 -330 549 -524
552 -521 2 1 -71 322 -161 712 -90 390 -163 710 -162 711 1 1 177 -290 392
-648 349 -583 390 -647 396 -622 4 15 26 165 49 333 22 168 58 429 79 580 21
151 53 386 72 523 18 136 36 247 40 247 5 0 8 -11 8 -24z m-1035 -43 c39 -8
111 -30 160 -49 187 -69 312 -71 488 -9 123 44 207 68 214 61 5 -5 -22 -228
-33 -272 -5 -18 -32 -31 -142 -70 l-137 -49 -135 0 c-128 0 -139 2 -225 34
-195 72 -206 75 -385 75 l-165 1 -150 -53 c-105 -37 -172 -55 -222 -59 l-73
-6 2 145 1 146 66 6 c36 4 133 30 215 57 202 69 351 81 521 42z m2370 12 c32
-3 125 -28 205 -55 81 -27 175 -52 213 -56 l67 -7 0 -143 0 -144 -48 0 c-56 0
-144 23 -292 77 l-105 38 -165 -1 c-178 0 -199 -4 -400 -80 -69 -26 -86 -29
-210 -29 l-135 0 -137 49 c-89 31 -139 54 -142 65 -11 41 -38 272 -32 278 3 4
77 -17 164 -46 247 -83 329 -82 587 9 78 27 148 44 200 49 78 8 109 8 230 -4z
m-2470 -572 c9 -43 25 -111 35 -152 l19 -73 -78 6 c-120 11 -237 -8 -402 -64
-104 -36 -163 -51 -210 -52 l-64 -3 -2 142 -2 142 32 5 c18 3 54 8 81 11 27 4
99 25 160 47 139 50 217 66 327 67 l87 1 17 -77z m2495 63 c41 -8 125 -32 186
-54 61 -22 133 -43 160 -47 27 -3 64 -8 82 -11 l32 -5 0 -146 0 -146 -64 6
c-36 3 -129 28 -213 56 -168 57 -285 76 -404 65 l-78 -7 9 34 c4 19 20 87 35
152 l27 117 76 0 c43 -1 111 -7 152 -14z m-1600 -26 c0 -13 -41 -294 -43 -296
-17 -12 -179 -66 -211 -70 l-43 -6 -68 113 c-37 63 -76 128 -86 145 l-19 31
88 0 c100 0 156 11 279 58 99 38 103 39 103 25z m570 -28 c129 -47 167 -54
267 -55 92 -1 93 -1 80 -21 -8 -12 -46 -76 -87 -143 -63 -108 -76 -123 -99
-123 -22 0 -217 62 -227 73 -4 4 -44 273 -44 296 0 7 6 11 13 8 6 -2 50 -18
97 -35z"/>
<path d="M7890 6880 l0 -153 105 6 c116 7 170 27 208 79 27 37 27 109 0 146
-39 52 -76 65 -200 70 l-113 5 0 -153z"/>
<path d="M7890 6353 l0 -176 113 7 c132 8 193 25 233 67 27 28 29 36 29 105 0
74 -1 76 -37 109 -50 46 -120 65 -240 65 l-98 0 0 -177z"/>
</g>
</svg>
