<svg id="svg" version="1.1" xmlns="http://www.w3.org/2000/svg" xmlns:xlink="http://www.w3.org/1999/xlink" width="400" height="394.8717948717949" viewBox="0, 0, 400,394.8717948717949"><g id="svgg"><path id="path0" d="M120.459 82.688 C 119.231 83.014,118.909 83.324,118.551 84.524 C 117.970 86.474,118.306 224.912,118.899 228.063 C 119.124 229.259,119.759 233.194,120.310 236.808 C 120.860 240.423,121.582 244.069,121.914 244.911 C 122.245 245.754,122.779 247.710,123.100 249.259 C 123.421 250.808,124.025 252.675,124.441 253.409 C 124.858 254.143,125.410 255.620,125.667 256.691 C 125.924 257.763,126.467 259.108,126.875 259.680 C 127.282 260.252,127.745 261.243,127.904 261.882 C 129.096 266.686,138.239 281.616,143.019 286.561 C 143.964 287.540,145.461 289.283,146.345 290.435 C 148.963 293.849,158.843 302.186,164.229 305.526 C 165.316 306.200,167.006 307.358,167.984 308.099 C 171.364 310.658,181.115 315.531,188.735 318.469 C 190.692 319.223,192.915 320.082,193.676 320.377 C 194.437 320.672,195.385 320.922,195.784 320.931 C 196.182 320.941,197.694 321.456,199.143 322.077 C 204.656 324.437,210.102 324.562,215.020 322.442 C 215.998 322.020,218.132 321.264,219.763 320.763 C 222.512 319.916,224.981 318.983,231.028 316.506 C 234.273 315.177,240.299 312.263,241.502 311.442 C 242.045 311.071,243.958 309.920,245.751 308.885 C 247.544 307.849,249.012 306.878,249.012 306.726 C 249.012 306.575,249.497 306.230,250.089 305.960 C 250.682 305.690,252.480 304.461,254.085 303.229 C 255.690 301.996,257.562 300.613,258.245 300.155 C 264.570 295.912,278.366 279.669,281.876 272.332 C 282.344 271.354,283.124 270.020,283.610 269.368 C 284.096 268.715,284.626 267.737,284.787 267.194 C 284.949 266.650,285.483 265.494,285.975 264.625 C 286.467 263.755,287.091 262.332,287.363 261.462 C 287.634 260.593,288.160 259.437,288.531 258.893 C 288.902 258.350,289.482 256.838,289.820 255.534 C 290.158 254.229,290.794 252.273,291.234 251.186 C 292.296 248.565,294.322 239.776,294.834 235.573 C 296.468 222.164,296.441 223.533,296.442 153.446 C 296.443 80.845,296.543 84.345,294.420 82.858 C 293.325 82.091,123.333 81.924,120.459 82.688 M287.562 90.296 L 288.933 90.869 288.923 157.193 C 288.917 197.878,288.768 224.150,288.536 225.152 C 288.328 226.051,287.804 229.647,287.371 233.142 C 286.938 236.638,286.298 240.171,285.950 240.994 C 285.601 241.817,284.982 243.913,284.573 245.652 C 282.790 253.244,278.879 262.755,274.394 270.409 C 267.734 281.772,254.939 294.369,242.730 301.581 C 241.810 302.125,240.401 302.997,239.600 303.520 C 238.798 304.042,237.342 304.824,236.364 305.256 C 235.385 305.688,234.082 306.461,233.468 306.973 C 232.853 307.486,232.100 307.905,231.794 307.905 C 231.487 307.905,230.063 308.528,228.629 309.289 C 227.195 310.049,225.762 310.672,225.445 310.672 C 225.129 310.672,224.206 311.011,223.395 311.424 C 212.355 317.056,203.424 317.114,191.858 311.628 C 190.749 311.102,189.692 310.672,189.509 310.672 C 188.971 310.672,181.082 306.732,180.841 306.343 C 180.720 306.147,179.957 305.770,179.145 305.506 C 178.333 305.242,176.957 304.546,176.087 303.960 C 175.217 303.373,173.350 302.205,171.937 301.364 C 163.034 296.067,156.472 290.524,149.731 282.609 C 144.748 276.757,144.655 276.643,143.640 275.101 C 143.138 274.339,142.367 273.271,141.926 272.727 C 141.485 272.184,141.120 271.530,141.116 271.275 C 141.111 271.020,140.692 270.309,140.186 269.694 C 137.988 267.028,131.571 251.538,130.634 246.640 C 130.489 245.879,129.956 244.012,129.450 242.490 C 128.944 240.968,128.341 237.945,128.109 235.771 C 127.878 233.597,127.298 230.128,126.820 228.063 L 125.951 224.308 125.797 157.766 C 125.652 95.296,125.684 91.178,126.321 90.474 C 127.246 89.451,285.124 89.277,287.562 90.296 M256.324 97.900 C 247.686 99.866,240.127 105.388,238.098 111.215 C 237.785 112.112,237.236 113.468,236.877 114.229 C 235.319 117.530,235.289 131.267,236.835 133.687 C 237.150 134.181,237.702 135.333,238.061 136.247 C 239.415 139.692,243.845 144.508,247.441 146.443 C 248.249 146.877,249.440 147.535,250.088 147.905 C 255.177 150.805,270.146 150.271,276.153 146.974 C 279.706 145.024,279.691 145.055,279.067 140.862 C 278.401 136.382,276.926 135.328,273.837 137.124 C 267.917 140.565,257.240 139.999,253.097 136.024 C 248.595 131.704,247.278 126.782,248.582 119.153 C 250.282 109.205,262.253 104.288,272.127 109.482 C 275.403 111.205,277.167 110.913,277.645 108.569 C 277.741 108.095,278.021 106.797,278.265 105.684 C 278.737 103.540,278.256 101.526,277.038 100.538 C 274.397 98.396,261.412 96.742,256.324 97.900 M136.333 99.179 L 135.178 100.334 135.178 115.943 C 135.178 133.771,135.413 135.993,137.721 139.930 C 140.572 144.794,145.554 148.254,151.117 149.233 C 165.361 151.739,176.312 147.131,180.453 136.887 L 182.016 133.021 182.016 116.593 C 182.016 96.455,182.471 98.006,176.572 98.063 C 168.749 98.139,169.174 97.110,169.161 116.008 C 169.149 133.993,168.937 134.999,164.511 138.110 C 162.335 139.639,156.397 139.834,153.360 138.476 C 148.343 136.234,147.826 134.017,147.826 114.743 L 147.826 100.334 146.671 99.179 C 145.545 98.054,145.411 98.024,141.502 98.024 C 137.593 98.024,137.459 98.054,136.333 99.179 M192.847 98.509 C 190.902 100.059,190.909 99.966,190.915 124.387 C 190.918 136.953,191.052 147.429,191.212 147.668 C 192.904 150.203,213.381 150.019,219.482 147.415 C 223.894 145.532,224.094 145.403,226.145 143.101 C 230.602 138.100,230.376 129.790,225.637 124.444 L 223.221 121.719 224.685 119.514 C 230.415 110.885,226.776 102.123,216.296 99.315 C 211.731 98.092,194.130 97.487,192.847 98.509 M212.149 108.145 C 215.093 108.955,216.311 111.830,214.963 114.789 C 213.168 118.729,204.157 119.501,203.413 115.778 C 201.908 108.255,204.457 106.028,212.149 108.145 M211.679 127.510 C 217.718 129.393,219.612 133.743,215.899 137.206 C 213.068 139.847,206.664 140.821,204.438 138.948 L 203.162 137.874 203.162 133.452 C 203.162 126.369,204.662 125.322,211.679 127.510 M153.478 155.196 C 151.696 155.513,148.672 156.306,146.759 156.958 C 144.846 157.610,142.125 158.415,140.711 158.747 C 136.466 159.744,136.202 159.856,135.686 160.876 C 135.069 162.096,135.019 168.202,135.613 169.904 C 136.337 171.983,140.206 172.118,145.059 170.234 C 156.685 165.719,162.310 165.752,174.542 170.405 C 180.653 172.729,186.407 172.427,195.556 169.302 L 202.174 167.042 207.708 167.061 C 212.428 167.078,213.590 167.210,215.613 167.962 C 216.917 168.446,218.785 169.073,219.763 169.354 C 220.741 169.634,222.520 170.271,223.715 170.767 C 227.139 172.189,235.908 172.151,239.526 170.699 C 251.984 165.697,258.240 165.677,271.016 170.602 C 274.020 171.759,278.252 171.912,279.097 170.893 C 279.457 170.460,279.675 168.853,279.755 166.051 C 279.892 161.269,279.501 160.068,277.663 159.621 C 273.145 158.523,271.457 158.053,269.368 157.312 C 259.143 153.688,252.029 153.719,241.304 157.437 C 234.330 159.855,228.613 159.849,221.487 157.416 C 210.505 153.667,204.578 153.659,193.626 157.379 C 186.633 159.755,180.145 159.840,174.308 157.633 C 166.743 154.773,160.172 154.004,153.478 155.196 M152.964 174.958 C 151.599 175.221,144.849 177.391,142.688 178.263 C 141.709 178.658,140.020 179.111,138.933 179.271 C 135.377 179.795,135.178 180.092,135.178 184.848 C 135.178 192.701,137.248 193.284,148.918 188.718 C 154.937 186.363,161.888 186.505,170.997 189.168 C 182.874 192.641,184.479 192.676,194.191 189.664 C 199.437 188.038,199.901 187.583,200.576 183.399 C 200.874 181.551,201.226 179.595,201.358 179.051 C 201.773 177.342,200.249 175.368,198.696 175.605 C 197.372 175.806,193.754 176.969,190.200 178.336 C 185.397 180.184,180.662 179.791,172.530 176.869 L 167.391 175.023 160.672 174.895 C 156.976 174.825,153.508 174.854,152.964 174.958 M248.617 174.957 C 248.073 175.063,244.960 176.068,241.700 177.189 C 232.596 180.321,229.960 180.211,218.661 176.230 C 213.057 174.256,212.411 175.738,214.882 184.897 C 215.650 187.743,216.344 188.305,220.830 189.713 C 230.585 192.776,232.826 192.666,246.047 188.476 C 252.236 186.514,262.845 186.655,266.202 188.743 C 267.272 189.408,274.055 191.304,276.358 191.581 C 279.149 191.917,279.838 190.594,279.840 184.904 C 279.842 180.353,279.415 179.447,277.271 179.447 C 276.175 179.447,273.466 178.655,267.787 176.673 L 263.043 175.018 256.324 174.891 C 252.628 174.821,249.160 174.850,248.617 174.957 M206.007 180.066 C 205.770 181.139,205.380 183.883,205.142 186.166 C 204.260 194.586,203.879 197.481,203.370 199.605 C 203.084 200.800,202.643 204.269,202.390 207.312 C 202.138 210.356,201.692 213.913,201.398 215.217 C 200.655 218.521,200.085 222.532,199.798 226.482 C 199.193 234.819,196.842 239.131,195.058 235.176 C 194.666 234.305,194.110 233.398,193.823 233.160 C 193.537 232.922,192.852 231.812,192.301 230.692 C 191.749 229.572,190.589 227.500,189.722 226.087 C 188.856 224.674,187.700 222.717,187.154 221.739 C 186.608 220.761,185.459 218.804,184.600 217.391 C 183.741 215.978,182.650 214.111,182.176 213.241 C 181.703 212.372,180.939 211.188,180.480 210.611 C 180.020 210.035,179.111 208.638,178.458 207.508 C 177.806 206.378,176.695 204.564,175.988 203.477 C 175.282 202.391,174.704 201.376,174.704 201.223 C 174.704 201.070,174.241 200.331,173.676 199.583 C 173.112 198.834,172.322 197.510,171.922 196.640 C 170.748 194.092,170.575 193.926,169.615 194.440 C 168.528 195.022,168.502 197.328,169.533 201.976 C 169.942 203.824,170.910 208.271,171.683 211.858 C 172.457 215.445,173.340 219.180,173.645 220.158 C 173.951 221.136,174.331 223.004,174.490 224.308 C 174.649 225.613,175.117 227.659,175.529 228.855 C 176.163 230.694,177.266 235.674,178.119 240.549 C 178.613 243.375,176.235 241.961,169.763 235.578 C 164.058 229.953,154.350 220.616,151.301 217.821 C 148.803 215.531,147.592 218.181,149.462 221.846 C 149.926 222.757,150.715 224.662,151.214 226.079 C 151.713 227.497,152.590 229.812,153.163 231.225 C 153.736 232.638,154.744 235.128,155.404 236.759 C 156.064 238.389,157.119 240.838,157.748 242.201 C 158.378 243.564,158.893 244.917,158.893 245.209 C 158.893 245.500,159.427 246.738,160.079 247.961 C 161.925 251.420,161.546 253.876,159.425 252.197 C 158.192 251.220,150.991 245.896,147.099 243.083 C 145.745 242.105,143.642 240.569,142.426 239.671 C 140.229 238.048,137.372 236.805,136.908 237.269 C 136.602 237.574,138.977 244.937,139.782 246.180 C 140.110 246.688,140.651 248.018,140.983 249.136 C 141.314 250.253,141.912 251.582,142.310 252.089 C 142.708 252.595,143.326 253.886,143.682 254.958 C 144.038 256.031,144.475 256.998,144.653 257.108 C 144.831 257.218,145.967 259.264,147.179 261.656 C 148.390 264.047,149.711 266.494,150.115 267.093 C 150.519 267.692,151.445 269.071,152.173 270.158 C 157.175 277.631,166.100 286.456,173.729 291.471 C 175.026 292.324,176.552 293.333,177.119 293.715 C 178.076 294.358,183.689 297.219,188.340 299.434 C 191.796 301.080,196.600 303.060,197.826 303.344 C 198.478 303.495,199.307 303.884,199.667 304.209 C 202.313 306.594,210.737 306.652,215.075 304.315 C 215.588 304.039,217.075 303.419,218.379 302.937 C 223.873 300.909,235.118 295.607,237.826 293.768 C 246.838 287.646,255.200 280.395,259.125 275.296 C 261.145 272.673,263.862 268.682,264.865 266.863 C 266.529 263.847,266.990 263.076,268.091 261.470 C 268.684 260.604,269.170 259.695,269.170 259.450 C 269.170 259.204,269.639 258.312,270.213 257.466 C 270.787 256.621,271.573 255.040,271.959 253.953 C 272.345 252.866,273.032 251.272,273.485 250.410 C 273.938 249.549,274.308 248.610,274.308 248.322 C 274.308 248.035,274.732 246.961,275.249 245.935 C 277.484 241.504,278.020 237.526,276.376 237.566 C 276.000 237.575,274.180 238.640,272.332 239.932 C 270.484 241.225,268.083 242.893,266.996 243.640 C 265.909 244.386,262.796 246.680,260.079 248.737 C 253.869 253.438,252.515 252.935,255.336 246.972 C 255.988 245.594,256.521 244.248,256.521 243.981 C 256.522 243.714,256.960 242.558,257.497 241.412 C 258.454 239.365,262.445 229.469,264.278 224.596 C 264.791 223.232,265.460 221.720,265.764 221.236 C 266.735 219.691,266.956 216.728,266.135 216.269 C 265.545 215.939,264.661 216.653,260.680 220.674 C 258.067 223.314,254.502 226.723,252.758 228.251 C 251.014 229.778,247.474 233.207,244.890 235.870 C 242.306 238.533,239.998 240.713,239.760 240.714 C 239.522 240.715,238.831 240.976,238.223 241.293 C 236.950 241.957,236.480 241.433,236.897 239.816 C 237.022 239.330,237.409 237.599,237.757 235.968 C 238.105 234.338,238.748 231.492,239.185 229.644 C 239.623 227.796,240.489 223.840,241.109 220.853 C 241.730 217.866,242.361 215.031,242.512 214.554 C 242.664 214.077,243.286 211.363,243.896 208.523 C 244.506 205.683,245.281 202.292,245.619 200.988 C 247.224 194.788,245.795 191.185,243.462 195.553 C 241.900 198.477,240.441 201.026,239.331 202.767 C 238.846 203.528,237.599 205.616,236.561 207.408 C 235.523 209.200,234.431 210.867,234.135 211.112 C 233.839 211.358,233.597 211.778,233.597 212.044 C 233.597 212.311,233.078 213.246,232.444 214.121 C 231.810 214.996,230.913 216.401,230.451 217.243 C 229.988 218.086,228.907 219.931,228.048 221.344 C 227.189 222.757,226.030 224.713,225.472 225.692 C 224.915 226.670,223.768 228.626,222.925 230.040 C 222.082 231.453,220.933 233.454,220.373 234.486 C 219.277 236.506,218.838 236.700,217.491 235.756 C 216.465 235.038,215.964 233.294,215.621 229.249 C 215.200 224.283,214.602 220.063,214.025 217.984 C 213.724 216.897,213.284 213.874,213.049 211.265 C 212.814 208.656,212.276 204.654,211.854 202.372 C 211.431 200.089,210.811 195.642,210.474 192.490 C 209.502 183.370,209.070 181.396,207.665 179.647 L 206.437 178.117 206.007 180.066 M152.329 195.059 C 150.566 195.335,148.649 195.872,148.067 196.253 C 147.486 196.634,145.727 197.264,144.158 197.654 C 135.571 199.788,135.178 200.127,135.178 205.382 C 135.178 212.059,137.724 212.779,147.828 208.960 C 151.021 207.753,155.473 207.058,160.010 207.058 C 165.046 207.058,165.521 206.203,164.140 199.616 C 163.044 194.386,161.192 193.671,152.329 195.059 M253.440 194.913 C 251.934 195.348,251.983 195.252,250.925 199.853 C 249.382 206.567,249.507 206.888,253.689 206.994 C 260.142 207.159,263.169 207.576,266.464 208.754 C 277.674 212.763,279.842 212.219,279.842 205.397 C 279.842 200.343,278.427 199.202,269.960 197.427 C 269.200 197.267,267.869 196.778,267.003 196.340 C 264.165 194.902,256.334 194.079,253.440 194.913 M194.269 196.869 C 189.557 198.501,186.594 199.312,184.236 199.614 C 180.028 200.152,179.956 200.994,183.651 206.433 C 184.356 207.472,185.037 208.647,185.163 209.045 C 185.875 211.286,190.480 211.326,194.789 209.128 C 196.983 208.009,197.218 207.565,197.655 203.712 C 197.873 201.793,198.149 199.834,198.269 199.358 C 198.839 197.087,196.980 195.930,194.269 196.869 M217.510 196.756 C 216.598 197.336,216.307 198.906,216.840 200.373 C 217.121 201.146,217.462 202.972,217.598 204.431 C 217.917 207.846,218.666 208.798,221.842 209.832 C 227.070 211.532,228.804 211.128,230.463 207.822 C 230.932 206.889,231.624 205.771,232.003 205.336 C 235.120 201.757,234.826 200.122,230.976 199.627 C 229.700 199.463,226.483 198.679,223.828 197.886 C 218.723 196.360,218.263 196.278,217.510 196.756 " stroke="none" fill="#1c3250" fill-rule="evenodd"></path><path id="path1" d="M0.000 197.628 L 0.000 395.257 200.000 395.257 L 400.000 395.257 400.000 197.628 L 400.000 0.000 200.000 0.000 L 0.000 0.000 0.000 197.628 M294.420 82.858 C 296.543 84.345,296.443 80.845,296.442 153.446 C 296.441 223.533,296.468 222.164,294.834 235.573 C 294.322 239.776,292.296 248.565,291.234 251.186 C 290.794 252.273,290.158 254.229,289.820 255.534 C 289.482 256.838,288.902 258.350,288.531 258.893 C 288.160 259.437,287.634 260.593,287.363 261.462 C 287.091 262.332,286.467 263.755,285.975 264.625 C 285.483 265.494,284.949 266.650,284.787 267.194 C 284.626 267.737,284.096 268.715,283.610 269.368 C 283.124 270.020,282.344 271.354,281.876 272.332 C 278.366 279.669,264.570 295.912,258.245 300.155 C 257.562 300.613,255.690 301.996,254.085 303.229 C 252.480 304.461,250.682 305.690,250.089 305.960 C 249.497 306.230,249.012 306.575,249.012 306.726 C 249.012 306.878,247.544 307.849,245.751 308.885 C 243.958 309.920,242.045 311.071,241.502 311.442 C 238.596 313.426,225.865 318.884,219.763 320.763 C 218.132 321.264,215.998 322.020,215.020 322.442 C 210.102 324.562,204.656 324.437,199.143 322.077 C 197.694 321.456,196.182 320.941,195.784 320.931 C 195.385 320.922,194.437 320.672,193.676 320.377 C 192.915 320.082,190.692 319.223,188.735 318.469 C 181.115 315.531,171.364 310.658,167.984 308.099 C 167.006 307.358,165.316 306.200,164.229 305.526 C 158.843 302.186,148.963 293.849,146.345 290.435 C 145.461 289.283,143.964 287.540,143.019 286.561 C 138.239 281.616,129.096 266.686,127.904 261.882 C 127.745 261.243,127.282 260.252,126.875 259.680 C 126.467 259.108,125.924 257.763,125.667 256.691 C 125.410 255.620,124.858 254.143,124.441 253.409 C 124.025 252.675,123.421 250.808,123.100 249.259 C 122.779 247.710,122.245 245.754,121.914 244.911 C 121.582 244.069,120.860 240.423,120.310 236.808 C 119.759 233.194,119.124 229.259,118.899 228.063 C 118.306 224.912,117.970 86.474,118.551 84.524 C 118.909 83.324,119.231 83.014,120.459 82.688 C 123.333 81.924,293.325 82.091,294.420 82.858 M126.321 90.474 C 125.684 91.178,125.652 95.296,125.797 157.766 L 125.951 224.308 126.820 228.063 C 127.298 230.128,127.878 233.597,128.109 235.771 C 128.341 237.945,128.944 240.968,129.450 242.490 C 129.956 244.012,130.489 245.879,130.634 246.640 C 131.571 251.538,137.988 267.028,140.186 269.694 C 140.692 270.309,141.111 271.020,141.116 271.275 C 141.120 271.530,141.485 272.184,141.926 272.727 C 142.367 273.271,143.138 274.339,143.640 275.101 C 144.655 276.643,144.748 276.757,149.731 282.609 C 156.472 290.524,163.034 296.067,171.937 301.364 C 173.350 302.205,175.217 303.373,176.087 303.960 C 176.957 304.546,178.333 305.242,179.145 305.506 C 179.957 305.770,180.720 306.147,180.841 306.343 C 181.082 306.732,188.971 310.672,189.509 310.672 C 189.692 310.672,190.749 311.102,191.858 311.628 C 203.424 317.114,212.355 317.056,223.395 311.424 C 224.206 311.011,225.129 310.672,225.445 310.672 C 225.762 310.672,227.195 310.049,228.629 309.289 C 230.063 308.528,231.487 307.905,231.794 307.905 C 232.100 307.905,232.853 307.486,233.468 306.973 C 234.082 306.461,235.385 305.688,236.364 305.256 C 237.342 304.824,238.798 304.042,239.600 303.520 C 240.401 302.997,241.810 302.125,242.730 301.581 C 254.939 294.369,267.734 281.772,274.394 270.409 C 278.879 262.755,282.790 253.244,284.573 245.652 C 284.982 243.913,285.601 241.817,285.950 240.994 C 286.298 240.171,286.938 236.638,287.371 233.142 C 287.804 229.647,288.328 226.051,288.536 225.152 C 288.768 224.150,288.917 197.878,288.923 157.193 L 288.933 90.869 287.562 90.296 C 285.124 89.277,127.246 89.451,126.321 90.474 M272.624 98.858 C 278.137 100.615,279.119 101.802,278.265 105.684 C 278.021 106.797,277.741 108.095,277.645 108.569 C 277.167 110.913,275.403 111.205,272.127 109.482 C 262.253 104.288,250.282 109.205,248.582 119.153 C 247.278 126.782,248.595 131.704,253.097 136.024 C 257.240 139.999,267.917 140.565,273.837 137.124 C 276.926 135.328,278.401 136.382,279.067 140.862 C 279.691 145.055,279.706 145.024,276.153 146.974 C 270.146 150.271,255.177 150.805,250.088 147.905 C 249.440 147.535,248.249 146.877,247.441 146.443 C 243.845 144.508,239.415 139.692,238.061 136.247 C 237.702 135.333,237.150 134.181,236.835 133.687 C 235.289 131.267,235.319 117.530,236.877 114.229 C 237.236 113.468,237.785 112.112,238.098 111.215 C 240.127 105.388,247.686 99.866,256.324 97.900 C 259.721 97.127,268.881 97.665,272.624 98.858 M146.671 99.179 L 147.826 100.334 147.826 114.743 C 147.826 134.017,148.343 136.234,153.360 138.476 C 156.397 139.834,162.335 139.639,164.511 138.110 C 168.937 134.999,169.149 133.993,169.161 116.008 C 169.174 97.110,168.749 98.139,176.572 98.063 C 182.471 98.006,182.016 96.455,182.016 116.593 L 182.016 133.021 180.453 136.887 C 172.829 155.746,139.474 154.002,135.752 134.550 C 135.310 132.244,135.178 127.945,135.178 115.943 L 135.178 100.334 136.333 99.179 C 137.459 98.054,137.593 98.024,141.502 98.024 C 145.411 98.024,145.545 98.054,146.671 99.179 M216.296 99.315 C 226.776 102.123,230.415 110.885,224.685 119.514 L 223.221 121.719 225.637 124.444 C 230.376 129.790,230.602 138.100,226.145 143.101 C 224.094 145.403,223.894 145.532,219.482 147.415 C 213.381 150.019,192.904 150.203,191.212 147.668 C 190.534 146.653,190.868 101.622,191.563 100.277 C 192.753 97.973,192.639 97.994,202.964 98.146 C 211.688 98.274,212.760 98.368,216.296 99.315 M205.102 107.779 C 203.155 108.597,202.550 111.464,203.413 115.778 C 204.157 119.501,213.168 118.729,214.963 114.789 C 217.146 109.997,210.710 105.421,205.102 107.779 M205.279 126.874 C 203.533 127.579,203.162 128.730,203.162 133.452 L 203.162 137.874 204.438 138.948 C 206.664 140.821,213.068 139.847,215.899 137.206 C 219.612 133.743,217.718 129.393,211.679 127.510 C 208.260 126.444,206.724 126.291,205.279 126.874 M166.525 155.380 C 168.741 155.838,172.243 156.853,174.308 157.633 C 180.145 159.840,186.633 159.755,193.626 157.379 C 204.578 153.659,210.505 153.667,221.487 157.416 C 228.613 159.849,234.330 159.855,241.304 157.437 C 252.029 153.719,259.143 153.688,269.368 157.312 C 271.457 158.053,273.145 158.523,277.663 159.621 C 279.501 160.068,279.892 161.269,279.755 166.051 C 279.675 168.853,279.457 170.460,279.097 170.893 C 278.252 171.912,274.020 171.759,271.016 170.602 C 258.240 165.677,251.984 165.697,239.526 170.699 C 235.908 172.151,227.139 172.189,223.715 170.767 C 222.520 170.271,220.741 169.634,219.763 169.354 C 218.785 169.073,216.917 168.446,215.613 167.962 C 213.590 167.210,212.428 167.078,207.708 167.061 L 202.174 167.042 195.556 169.302 C 186.407 172.427,180.653 172.729,174.542 170.405 C 162.310 165.752,156.685 165.719,145.059 170.234 C 140.206 172.118,136.337 171.983,135.613 169.904 C 135.019 168.202,135.069 162.096,135.686 160.876 C 136.202 159.856,136.466 159.744,140.711 158.747 C 142.125 158.415,144.846 157.610,146.759 156.958 C 153.941 154.511,159.993 154.027,166.525 155.380 M172.530 176.869 C 180.662 179.791,185.397 180.184,190.200 178.336 C 193.754 176.969,197.372 175.806,198.696 175.605 C 200.249 175.368,201.773 177.342,201.358 179.051 C 201.226 179.595,200.874 181.551,200.576 183.399 C 199.901 187.583,199.437 188.038,194.191 189.664 C 184.479 192.676,182.874 192.641,170.997 189.168 C 161.888 186.505,154.937 186.363,148.918 188.718 C 137.248 193.284,135.178 192.701,135.178 184.848 C 135.178 180.092,135.377 179.795,138.933 179.271 C 140.020 179.111,141.709 178.658,142.688 178.263 C 144.849 177.391,151.599 175.221,152.964 174.958 C 153.508 174.854,156.976 174.825,160.672 174.895 L 167.391 175.023 172.530 176.869 M267.787 176.673 C 273.466 178.655,276.175 179.447,277.271 179.447 C 279.415 179.447,279.842 180.353,279.840 184.904 C 279.838 190.594,279.149 191.917,276.358 191.581 C 274.055 191.304,267.272 189.408,266.202 188.743 C 262.845 186.655,252.236 186.514,246.047 188.476 C 232.826 192.666,230.585 192.776,220.830 189.713 C 216.344 188.305,215.650 187.743,214.882 184.897 C 212.411 175.738,213.057 174.256,218.661 176.230 C 229.960 180.211,232.596 180.321,241.700 177.189 C 249.178 174.617,248.392 174.741,256.324 174.891 L 263.043 175.018 267.787 176.673 M209.378 183.968 C 209.645 185.503,210.138 189.338,210.474 192.490 C 210.811 195.642,211.431 200.089,211.854 202.372 C 212.276 204.654,212.814 208.656,213.049 211.265 C 213.284 213.874,213.724 216.897,214.025 217.984 C 214.602 220.063,215.200 224.283,215.621 229.249 C 215.964 233.294,216.465 235.038,217.491 235.756 C 218.838 236.700,219.277 236.506,220.373 234.486 C 220.933 233.454,222.082 231.453,222.925 230.040 C 223.768 228.626,224.915 226.670,225.472 225.692 C 226.030 224.713,227.189 222.757,228.048 221.344 C 228.907 219.931,229.988 218.086,230.451 217.243 C 230.913 216.401,231.810 214.996,232.444 214.121 C 233.078 213.246,233.597 212.311,233.597 212.044 C 233.597 211.778,233.839 211.358,234.135 211.112 C 234.431 210.867,235.523 209.200,236.561 207.408 C 237.599 205.616,238.846 203.528,239.331 202.767 C 240.441 201.026,241.900 198.477,243.462 195.553 C 245.795 191.185,247.224 194.788,245.619 200.988 C 245.281 202.292,244.506 205.683,243.896 208.523 C 243.286 211.363,242.664 214.077,242.512 214.554 C 242.361 215.031,241.730 217.866,241.109 220.853 C 240.489 223.840,239.623 227.796,239.185 229.644 C 238.748 231.492,238.105 234.338,237.757 235.968 C 237.409 237.599,237.022 239.330,236.897 239.816 C 236.480 241.433,236.950 241.957,238.223 241.293 C 238.831 240.976,239.522 240.715,239.760 240.714 C 239.998 240.713,242.306 238.533,244.890 235.870 C 247.474 233.207,251.014 229.778,252.758 228.251 C 254.502 226.723,258.067 223.314,260.680 220.674 C 264.661 216.653,265.545 215.939,266.135 216.269 C 266.956 216.728,266.735 219.691,265.764 221.236 C 265.460 221.720,264.791 223.232,264.278 224.596 C 262.445 229.469,258.454 239.365,257.497 241.412 C 256.960 242.558,256.522 243.714,256.521 243.981 C 256.521 244.248,255.988 245.594,255.336 246.972 C 252.515 252.935,253.869 253.438,260.079 248.737 C 262.796 246.680,265.909 244.386,266.996 243.640 C 268.083 242.893,270.484 241.225,272.332 239.932 C 274.180 238.640,276.000 237.575,276.376 237.566 C 278.020 237.526,277.484 241.504,275.249 245.935 C 274.732 246.961,274.308 248.035,274.308 248.322 C 274.308 248.610,273.938 249.549,273.485 250.410 C 273.032 251.272,272.345 252.866,271.959 253.953 C 271.573 255.040,270.787 256.621,270.213 257.466 C 269.639 258.312,269.170 259.204,269.170 259.450 C 269.170 259.695,268.684 260.604,268.091 261.470 C 266.990 263.076,266.529 263.847,264.865 266.863 C 264.345 267.806,263.115 269.733,262.131 271.146 C 256.376 279.413,249.402 285.905,237.826 293.768 C 235.118 295.607,223.873 300.909,218.379 302.937 C 217.075 303.419,215.588 304.039,215.075 304.315 C 210.737 306.652,202.313 306.594,199.667 304.209 C 199.307 303.884,198.478 303.495,197.826 303.344 C 196.600 303.060,191.796 301.080,188.340 299.434 C 183.689 297.219,178.076 294.358,177.119 293.715 C 176.552 293.333,175.026 292.324,173.729 291.471 C 166.100 286.456,157.175 277.631,152.173 270.158 C 151.445 269.071,150.519 267.692,150.115 267.093 C 149.711 266.494,148.390 264.047,147.179 261.656 C 145.967 259.264,144.831 257.218,144.653 257.108 C 144.475 256.998,144.038 256.031,143.682 254.958 C 143.326 253.886,142.708 252.595,142.310 252.089 C 141.912 251.582,141.314 250.253,140.983 249.136 C 140.651 248.018,140.110 246.688,139.782 246.180 C 138.977 244.937,136.602 237.574,136.908 237.269 C 137.372 236.805,140.229 238.048,142.426 239.671 C 143.642 240.569,145.745 242.105,147.099 243.083 C 150.991 245.896,158.192 251.220,159.425 252.197 C 161.546 253.876,161.925 251.420,160.079 247.961 C 159.427 246.738,158.893 245.500,158.893 245.209 C 158.893 244.917,158.378 243.564,157.748 242.201 C 157.119 240.838,156.064 238.389,155.404 236.759 C 154.744 235.128,153.736 232.638,153.163 231.225 C 152.590 229.812,151.713 227.497,151.214 226.079 C 150.715 224.662,149.926 222.757,149.462 221.846 C 147.592 218.181,148.803 215.531,151.301 217.821 C 154.350 220.616,164.058 229.953,169.763 235.578 C 176.235 241.961,178.613 243.375,178.119 240.549 C 177.266 235.674,176.163 230.694,175.529 228.855 C 175.117 227.659,174.649 225.613,174.490 224.308 C 174.331 223.004,173.951 221.136,173.645 220.158 C 173.340 219.180,172.457 215.445,171.683 211.858 C 170.910 208.271,169.942 203.824,169.533 201.976 C 168.502 197.328,168.528 195.022,169.615 194.440 C 170.575 193.926,170.748 194.092,171.922 196.640 C 172.322 197.510,173.112 198.834,173.676 199.583 C 174.241 200.331,174.704 201.070,174.704 201.223 C 174.704 201.376,175.282 202.391,175.988 203.477 C 176.695 204.564,177.806 206.378,178.458 207.508 C 179.111 208.638,180.020 210.035,180.480 210.611 C 180.939 211.188,181.703 212.372,182.176 213.241 C 182.650 214.111,183.741 215.978,184.600 217.391 C 185.459 218.804,186.608 220.761,187.154 221.739 C 187.700 222.717,188.856 224.674,189.722 226.087 C 190.589 227.500,191.749 229.572,192.301 230.692 C 192.852 231.812,193.537 232.922,193.823 233.160 C 194.110 233.398,194.666 234.305,195.058 235.176 C 196.842 239.131,199.193 234.819,199.798 226.482 C 200.085 222.532,200.655 218.521,201.398 215.217 C 201.692 213.913,202.138 210.356,202.390 207.312 C 202.643 204.269,203.084 200.800,203.370 199.605 C 203.879 197.481,204.260 194.586,205.142 186.166 C 205.380 183.883,205.770 181.139,206.007 180.066 L 206.437 178.117 207.665 179.647 C 208.576 180.781,209.019 181.898,209.378 183.968 M162.096 195.367 C 164.230 196.800,165.716 205.679,163.998 206.740 C 163.715 206.915,161.921 207.058,160.010 207.058 C 155.473 207.058,151.021 207.753,147.828 208.960 C 137.724 212.779,135.178 212.059,135.178 205.382 C 135.178 200.127,135.571 199.788,144.158 197.654 C 145.727 197.264,147.486 196.634,148.067 196.253 C 150.650 194.560,160.012 193.969,162.096 195.367 M261.865 195.007 C 263.825 195.302,266.138 195.901,267.003 196.340 C 267.869 196.778,269.200 197.267,269.960 197.427 C 278.427 199.202,279.842 200.343,279.842 205.397 C 279.842 212.219,277.674 212.763,266.464 208.754 C 263.169 207.576,260.142 207.159,253.689 206.994 C 250.195 206.905,250.023 206.802,250.078 204.828 C 250.115 203.508,251.427 197.140,251.934 195.818 C 252.435 194.513,256.412 194.188,261.865 195.007 M198.048 197.674 C 198.289 198.124,198.388 198.882,198.269 199.358 C 198.149 199.834,197.873 201.793,197.655 203.712 C 197.218 207.565,196.983 208.009,194.789 209.128 C 190.480 211.326,185.875 211.286,185.163 209.045 C 185.037 208.647,184.356 207.472,183.651 206.433 C 179.956 200.994,180.028 200.152,184.236 199.614 C 186.594 199.312,189.557 198.501,194.269 196.869 C 196.418 196.124,197.322 196.317,198.048 197.674 M223.828 197.886 C 226.483 198.679,229.700 199.463,230.976 199.627 C 234.826 200.122,235.120 201.757,232.003 205.336 C 231.624 205.771,230.932 206.889,230.463 207.822 C 228.804 211.128,227.070 211.532,221.842 209.832 C 218.666 208.798,217.917 207.846,217.598 204.431 C 217.462 202.972,217.121 201.146,216.840 200.373 C 216.114 198.375,216.917 196.468,218.492 196.449 C 218.771 196.445,221.173 197.092,223.828 197.886 " stroke="none" fill="#fbfbfb" fill-rule="evenodd"></path></g></svg>