<?xml version="1.0" standalone="no"?>
<!DOCTYPE svg PUBLIC "-//W3C//DTD SVG 20010904//EN"
 "http://www.w3.org/TR/2001/REC-SVG-20010904/DTD/svg10.dtd">
<svg version="1.0" xmlns="http://www.w3.org/2000/svg"
 width="74.000000pt" height="71.000000pt" viewBox="0 0 74.000000 71.000000"
 preserveAspectRatio="xMidYMid meet">

<g transform="translate(0.000000,71.000000) scale(0.100000,-0.100000)"
fill="#000000" stroke="none">
<path d="M322 450 c0 -14 2 -19 5 -12 2 6 2 18 0 25 -3 6 -5 1 -5 -13z"/>
<path d="M256 353 c-9 -43 -17 -84 -18 -90 -1 -7 -9 -13 -18 -13 -9 0 -16 -8
-16 -19 0 -11 5 -17 13 -14 10 4 12 -3 8 -27 -4 -20 -2 -29 5 -25 5 3 11 14
11 23 1 9 5 4 9 -13 7 -28 8 -28 9 -5 1 14 6 32 12 40 8 12 10 8 7 -17 -3 -18
-1 -30 4 -27 4 3 8 16 8 30 0 30 3 31 105 43 l80 10 -90 -5 c-63 -3 -85 -1
-75 6 10 6 11 10 2 10 -6 0 -11 6 -10 13 2 6 -3 11 -9 9 -7 -1 -13 6 -14 15 0
15 -2 15 -9 -2 -8 -19 -9 -19 -9 2 -1 12 4 45 10 73 6 28 9 53 6 56 -2 2 -12
-31 -21 -73z"/>
<path d="M312 395 c0 -16 2 -22 5 -12 2 9 2 23 0 30 -3 6 -5 -1 -5 -18z"/>
<path d="M302 330 c0 -14 2 -19 5 -12 2 6 2 18 0 25 -3 6 -5 1 -5 -13z"/>
<path d="M378 283 c12 -2 32 -2 45 0 12 2 2 4 -23 4 -25 0 -35 -2 -22 -4z"/>
<path d="M537 253 c18 -2 50 -2 70 0 21 2 7 4 -32 4 -38 0 -55 -2 -38 -4z"/>
<path d="M158 233 c7 -3 16 -2 19 1 4 3 -2 6 -13 5 -11 0 -14 -3 -6 -6z"/>
<path d="M155 210 c-3 -6 1 -7 9 -4 18 7 21 14 7 14 -6 0 -13 -4 -16 -10z"/>
</g>
</svg>
