<svg id="svg" version="1.1" xmlns="http://www.w3.org/2000/svg" xmlns:xlink="http://www.w3.org/1999/xlink" width="400" height="397.75700934579436" viewBox="0, 0, 400,397.75700934579436"><g id="svgg"><path id="path0" d="M0.000 199.005 L 0.000 398.010 200.000 398.010 L 400.000 398.010 400.000 199.005 L 400.000 0.000 200.000 0.000 L 0.000 0.000 0.000 199.005 M377.545 22.066 C 378.451 23.306,378.390 375.384,377.483 376.291 C 376.548 377.226,23.668 377.055,23.076 376.119 C 22.628 375.410,22.543 22.728,22.991 22.036 C 23.538 21.191,24.957 21.185,200.928 21.239 C 374.708 21.293,376.987 21.304,377.545 22.066 M165.862 79.889 C 166.568 79.977,167.822 79.979,168.648 79.892 C 169.474 79.806,168.896 79.734,167.363 79.733 C 165.831 79.731,165.155 79.801,165.862 79.889 M159.602 80.995 C 159.055 81.308,158.786 81.564,159.005 81.564 C 159.224 81.564,159.851 81.308,160.398 80.995 C 160.945 80.682,161.214 80.426,160.995 80.426 C 160.776 80.426,160.149 80.682,159.602 80.995 M227.761 80.683 C 228.363 80.774,229.348 80.774,229.950 80.683 C 230.552 80.592,230.060 80.517,228.856 80.517 C 227.652 80.517,227.159 80.592,227.761 80.683 M85.004 81.421 C 84.179 82.246,84.215 82.671,85.148 83.170 C 86.238 83.753,86.656 83.682,85.803 83.058 C 85.131 82.566,85.128 82.491,85.755 81.864 C 86.438 81.181,98.466 80.821,100.067 81.436 C 100.990 81.790,100.834 82.996,99.801 83.494 C 99.308 83.732,99.095 83.938,99.327 83.953 C 100.355 84.019,101.212 82.908,100.947 81.853 L 100.681 80.796 93.155 80.796 C 86.844 80.796,85.528 80.897,85.004 81.421 M118.289 81.274 C 117.534 82.028,117.730 83.117,118.706 83.590 C 119.515 83.982,119.534 83.969,118.905 83.461 C 117.060 81.968,118.687 81.194,123.666 81.194 C 128.112 81.194,130.219 81.964,128.738 83.048 C 127.924 83.643,128.428 83.778,129.331 83.206 C 129.796 82.912,129.816 82.648,129.439 81.820 C 128.907 80.653,119.376 80.186,118.289 81.274 M210.932 81.617 C 210.461 82.496,211.000 83.594,211.890 83.570 C 212.136 83.563,212.024 83.375,211.639 83.151 C 211.093 82.833,211.030 82.576,211.350 81.978 C 211.729 81.270,212.331 81.203,219.213 81.094 L 226.667 80.976 219.019 80.886 C 211.653 80.799,211.355 80.826,210.932 81.617 M270.328 81.274 C 269.305 82.297,270.038 83.640,271.575 83.557 C 271.831 83.543,271.605 83.358,271.073 83.145 C 268.349 82.057,271.061 81.400,278.819 81.269 L 286.169 81.145 286.169 82.164 C 286.169 82.974,285.973 83.184,285.218 83.184 C 284.695 83.184,283.844 83.557,283.328 84.012 L 282.388 84.840 283.372 84.211 C 283.913 83.865,284.742 83.582,285.214 83.582 C 286.394 83.582,286.949 82.787,286.534 81.692 C 286.134 80.636,271.347 80.255,270.328 81.274 M297.411 81.736 C 297.051 82.526,297.078 82.824,297.544 83.210 C 298.024 83.608,298.083 83.577,297.875 83.036 C 297.148 81.142,306.575 80.222,310.361 81.818 L 311.841 82.441 310.846 82.997 C 310.214 83.351,310.077 83.559,310.471 83.568 C 311.780 83.598,312.525 82.660,311.887 81.786 C 311.357 81.060,310.757 80.985,304.586 80.870 L 297.862 80.745 297.411 81.736 M237.413 82.462 C 237.851 82.709,238.881 83.435,239.701 84.076 C 240.522 84.717,241.194 85.145,241.194 85.027 C 241.194 84.669,237.529 81.989,237.057 82.002 C 236.815 82.009,236.975 82.216,237.413 82.462 M165.464 83.471 C 166.170 83.559,167.424 83.561,168.250 83.475 C 169.076 83.388,168.498 83.316,166.965 83.315 C 165.433 83.313,164.757 83.383,165.464 83.471 M150.846 85.626 L 149.055 87.248 150.741 85.983 C 152.207 84.883,153.148 83.954,152.760 83.992 C 152.692 83.999,151.831 84.734,150.846 85.626 M222.567 84.458 C 222.029 84.996,221.858 103.292,222.388 103.621 C 222.552 103.722,222.635 99.595,222.573 94.448 C 222.492 87.792,222.592 84.931,222.920 84.536 C 223.484 83.856,223.226 83.799,222.567 84.458 M231.688 85.115 C 232.649 85.861,234.803 87.067,234.417 86.644 C 234.052 86.242,231.218 84.378,230.973 84.378 C 230.844 84.378,231.166 84.710,231.688 85.115 M185.871 87.761 C 187.060 88.965,188.122 89.950,188.232 89.950 C 188.341 89.950,187.458 88.965,186.269 87.761 C 185.080 86.557,184.017 85.572,183.908 85.572 C 183.798 85.572,184.682 86.557,185.871 87.761 M97.910 86.265 C 97.910 86.530,98.268 87.333,98.705 88.050 C 99.735 89.740,99.736 89.189,98.706 87.268 C 98.269 86.451,97.910 86.000,97.910 86.265 M215.233 90.882 C 215.399 98.314,215.581 99.126,215.648 92.736 C 215.682 89.562,215.578 86.757,215.417 86.504 C 215.256 86.250,215.173 88.220,215.233 90.882 M242.244 86.965 C 243.164 88.537,243.184 88.560,243.184 88.071 C 243.184 87.839,242.815 87.228,242.364 86.711 L 241.545 85.771 242.244 86.965 M301.872 89.254 L 300.299 90.945 301.990 89.372 C 303.563 87.909,303.864 87.562,303.563 87.562 C 303.498 87.562,302.737 88.323,301.872 89.254 M295.895 90.050 L 294.726 91.343 296.020 90.174 C 296.731 89.531,297.313 88.949,297.313 88.881 C 297.313 88.573,296.985 88.844,295.895 90.050 M146.596 90.050 C 146.153 90.542,145.648 91.214,145.473 91.542 C 145.138 92.176,145.229 92.089,146.842 90.249 C 147.369 89.647,147.711 89.154,147.601 89.154 C 147.492 89.154,147.040 89.557,146.596 90.050 M297.895 93.234 L 295.920 95.323 298.010 93.348 C 299.952 91.513,300.282 91.144,299.985 91.144 C 299.922 91.144,298.982 92.085,297.895 93.234 M116.741 93.167 C 116.269 94.030,116.049 94.633,116.252 94.507 C 116.694 94.234,117.928 91.925,117.735 91.732 C 117.661 91.658,117.214 92.304,116.741 93.167 M181.891 91.807 C 181.891 92.014,182.338 92.791,182.886 93.532 C 183.433 94.274,183.881 94.765,183.881 94.622 C 183.881 94.480,183.433 93.704,182.886 92.897 C 182.338 92.091,181.891 91.601,181.891 91.807 M244.478 92.935 C 244.483 93.811,244.564 94.122,244.660 93.627 C 244.755 93.132,244.751 92.416,244.652 92.035 C 244.552 91.655,244.474 92.060,244.478 92.935 M144.234 93.346 C 143.871 93.900,143.646 94.426,143.735 94.514 C 143.823 94.603,144.197 94.149,144.566 93.507 C 145.387 92.076,145.144 91.957,144.234 93.346 M101.493 93.422 C 101.493 93.653,101.861 94.265,102.312 94.782 L 103.132 95.721 102.433 94.527 C 101.512 92.956,101.493 92.932,101.493 93.422 M291.915 94.428 L 290.746 95.721 292.040 94.552 C 292.751 93.909,293.333 93.327,293.333 93.259 C 293.333 92.951,293.005 93.222,291.915 94.428 M191.322 95.716 C 191.686 96.480,192.054 97.034,192.140 96.947 C 192.323 96.765,191.114 94.328,190.842 94.328 C 190.742 94.328,190.958 94.953,191.322 95.716 M237.704 95.522 C 237.704 96.289,237.786 96.602,237.886 96.219 C 237.986 95.836,237.986 95.209,237.886 94.826 C 237.786 94.443,237.704 94.756,237.704 95.522 M118.900 96.420 L 118.197 97.711 118.999 96.772 C 119.681 95.972,120.046 95.118,119.701 95.127 C 119.647 95.128,119.286 95.710,118.900 96.420 M288.935 97.811 C 285.584 101.369,284.421 102.687,284.633 102.687 C 284.750 102.687,286.232 101.164,287.926 99.303 C 289.619 97.443,290.940 95.920,290.861 95.920 C 290.781 95.920,289.915 96.771,288.935 97.811 M293.122 98.408 L 290.746 100.896 293.234 98.520 C 294.602 97.213,295.721 96.094,295.721 96.032 C 295.721 95.738,295.329 96.097,293.122 98.408 M243.647 98.126 C 242.980 99.590,243.107 99.902,243.828 98.572 C 244.165 97.950,244.366 97.368,244.275 97.277 C 244.184 97.186,243.901 97.568,243.647 98.126 M184.691 97.964 C 184.683 98.103,184.938 98.820,185.258 99.556 C 185.578 100.293,185.840 100.627,185.841 100.299 C 185.842 99.725,184.720 97.446,184.691 97.964 M148.713 99.984 C 148.578 100.485,148.486 101.343,148.507 101.891 C 148.529 102.477,148.687 102.160,148.891 101.120 C 149.257 99.256,149.128 98.435,148.713 99.984 M215.500 112.239 C 215.500 118.915,215.555 121.647,215.621 118.308 C 215.688 114.970,215.688 109.507,215.621 106.169 C 215.555 102.831,215.500 105.562,215.500 112.239 M234.804 102.189 L 233.433 103.682 234.925 102.310 C 236.315 101.033,236.601 100.697,236.297 100.697 C 236.230 100.697,235.559 101.368,234.804 102.189 M185.963 102.687 C 185.963 103.453,186.045 103.766,186.145 103.383 C 186.245 103.000,186.245 102.373,186.145 101.990 C 186.045 101.607,185.963 101.920,185.963 102.687 M193.234 105.672 C 193.234 107.735,193.356 109.116,193.504 108.741 C 193.653 108.366,193.775 106.985,193.775 105.672 C 193.775 104.358,193.653 102.977,193.504 102.602 C 193.356 102.227,193.234 103.608,193.234 105.672 M240.796 103.085 C 240.328 103.741,240.035 104.279,240.145 104.279 C 240.254 104.279,240.726 103.741,241.194 103.085 C 241.662 102.428,241.955 101.891,241.845 101.891 C 241.736 101.891,241.264 102.428,240.796 103.085 M283.184 103.881 C 282.298 104.860,281.904 104.886,281.667 103.980 C 281.514 103.392,281.478 103.385,281.439 103.931 C 281.347 105.221,282.345 105.352,283.457 104.196 C 284.045 103.585,284.386 103.085,284.215 103.085 C 284.044 103.085,283.580 103.443,283.184 103.881 M141.430 106.468 C 141.431 108.219,141.501 108.886,141.585 107.950 C 141.670 107.014,141.668 105.581,141.583 104.766 C 141.497 103.950,141.429 104.716,141.430 106.468 M110.791 104.876 C 110.532 105.549,108.436 105.697,108.123 105.065 C 108.011 104.840,107.966 104.885,108.021 105.164 C 108.200 106.072,110.538 106.021,111.032 105.098 C 111.273 104.647,111.369 104.279,111.245 104.279 C 111.121 104.279,110.917 104.547,110.791 104.876 M223.641 104.797 C 223.817 104.972,225.107 105.060,226.508 104.991 L 229.055 104.867 226.187 104.672 C 224.610 104.565,223.464 104.621,223.641 104.797 M235.489 106.534 C 235.061 106.962,235.181 107.654,235.827 108.481 C 236.385 109.195,236.394 109.168,235.949 108.131 C 235.554 107.207,235.570 106.943,236.043 106.644 C 236.358 106.444,236.423 106.278,236.186 106.275 C 235.949 106.271,235.635 106.388,235.489 106.534 M148.486 107.695 C 148.501 108.333,148.672 109.214,148.866 109.652 C 149.101 110.183,149.140 109.853,148.982 108.657 C 148.703 106.547,148.446 106.049,148.486 107.695 M112.537 108.074 C 111.543 109.403,111.672 109.774,112.682 108.490 C 113.145 107.902,113.458 107.358,113.379 107.282 C 113.299 107.205,112.920 107.562,112.537 108.074 M222.255 116.418 C 222.256 120.577,222.315 122.225,222.387 120.079 C 222.458 117.933,222.458 114.530,222.386 112.517 C 222.314 110.503,222.255 112.259,222.255 116.418 M185.971 110.846 C 185.975 111.721,186.057 112.033,186.152 111.538 C 186.247 111.043,186.244 110.326,186.144 109.946 C 186.044 109.565,185.967 109.970,185.971 110.846 M290.945 113.831 C 292.083 115.144,293.104 116.219,293.213 116.219 C 293.323 116.219,292.481 115.144,291.343 113.831 C 290.205 112.517,289.185 111.443,289.075 111.443 C 288.966 111.443,289.807 112.517,290.945 113.831 M104.837 119.005 C 104.837 122.398,104.898 123.786,104.972 122.090 C 105.047 120.393,105.047 117.617,104.972 115.920 C 104.898 114.224,104.837 115.612,104.837 119.005 M142.123 113.632 C 142.123 113.851,142.466 114.657,142.886 115.423 C 143.305 116.189,143.648 116.637,143.648 116.418 C 143.648 116.199,143.305 115.393,142.886 114.627 C 142.466 113.861,142.123 113.413,142.123 113.632 M191.421 115.322 C 190.522 117.116,190.534 117.293,191.463 115.904 C 191.944 115.183,192.255 114.511,192.154 114.409 C 192.053 114.308,191.723 114.719,191.421 115.322 M232.438 115.710 C 232.438 115.942,232.807 116.554,233.257 117.070 L 234.077 118.010 233.378 116.816 C 232.458 115.244,232.438 115.221,232.438 115.710 M189.204 119.701 C 188.027 121.318,187.664 122.141,188.634 120.995 C 189.531 119.935,190.367 118.607,190.139 118.607 C 190.063 118.607,189.642 119.100,189.204 119.701 M305.421 120.713 C 306.488 121.963,307.445 122.985,307.548 122.985 C 307.815 122.985,304.500 119.066,303.944 118.724 C 303.690 118.568,304.355 119.463,305.421 120.713 M281.434 124.235 C 281.411 124.812,281.706 125.627,282.090 126.044 C 282.473 126.462,282.629 126.570,282.437 126.285 C 282.245 126.000,281.950 125.185,281.781 124.475 C 281.500 123.291,281.471 123.271,281.434 124.235 M300.094 124.381 C 301.679 126.290,301.812 126.413,301.379 125.568 C 301.154 125.127,300.550 124.412,300.037 123.978 C 299.137 123.218,299.139 123.232,300.094 124.381 M238.009 124.876 C 238.530 125.587,239.018 126.169,239.094 126.169 C 239.396 126.169,238.409 124.676,237.757 124.146 C 237.327 123.797,237.423 124.075,238.009 124.876 M149.452 124.910 C 150.266 125.877,153.632 128.292,153.854 128.069 C 153.924 128.000,153.321 127.509,152.513 126.979 C 151.706 126.449,150.510 125.558,149.857 124.998 C 148.778 124.073,148.741 124.065,149.452 124.910 M103.897 126.138 C 103.672 126.559,103.176 127.215,102.796 127.595 C 102.415 127.976,102.334 128.211,102.615 128.117 C 103.139 127.942,104.933 125.373,104.531 125.373 C 104.407 125.373,104.122 125.717,103.897 126.138 M311.443 126.754 C 312.100 127.292,312.806 127.739,313.013 127.747 C 313.219 127.755,312.782 127.313,312.040 126.766 C 310.305 125.486,309.886 125.478,311.443 126.754 M167.065 128.447 C 167.776 128.535,168.940 128.535,169.652 128.447 C 170.363 128.359,169.781 128.287,168.358 128.287 C 166.935 128.287,166.353 128.359,167.065 128.447 M269.439 128.773 C 269.024 129.272,269.026 129.477,269.448 129.868 C 269.860 130.249,269.902 130.233,269.649 129.790 C 269.445 129.432,269.593 129.041,270.065 128.696 C 270.469 128.401,270.608 128.159,270.374 128.159 C 270.140 128.159,269.719 128.435,269.439 128.773 M252.438 128.832 C 253.523 129.115,253.261 129.689,251.841 130.137 L 250.547 130.545 251.928 130.339 C 254.181 130.005,254.548 128.461,252.338 128.609 C 251.915 128.638,251.944 128.703,252.438 128.832 M156.418 129.174 C 156.418 129.465,158.855 130.598,159.213 130.472 C 159.407 130.404,158.857 130.048,157.992 129.681 C 157.126 129.314,156.418 129.086,156.418 129.174 M243.309 129.851 C 243.727 130.234,244.451 130.532,244.920 130.513 C 245.610 130.485,245.559 130.415,244.651 130.143 C 244.035 129.958,243.310 129.660,243.040 129.480 C 242.770 129.301,242.891 129.468,243.309 129.851 M105.572 130.442 C 106.612 130.524,108.313 130.524,109.353 130.442 C 110.393 130.360,109.542 130.293,107.463 130.293 C 105.383 130.293,104.532 130.360,105.572 130.442 M216.199 130.445 C 218.103 130.518,221.327 130.518,223.363 130.446 C 225.399 130.374,223.841 130.314,219.900 130.314 C 215.960 130.313,214.294 130.373,216.199 130.445 M273.333 130.445 C 275.139 130.519,278.095 130.519,279.900 130.445 C 281.706 130.372,280.229 130.311,276.617 130.311 C 273.005 130.311,271.527 130.372,273.333 130.445 M307.183 130.446 C 308.999 130.520,311.865 130.519,313.551 130.445 C 315.237 130.370,313.751 130.310,310.249 130.310 C 306.746 130.311,305.367 130.372,307.183 130.446 M165.338 131.432 C 166.476 131.635,168.140 131.632,169.318 131.423 C 171.139 131.102,170.941 131.066,167.363 131.074 C 163.843 131.081,163.609 131.122,165.338 131.432 M111.790 146.728 C 111.331 147.281,111.244 161.359,111.244 235.224 C 111.244 309.089,111.331 323.166,111.790 323.720 C 112.501 324.576,288.021 324.755,288.876 323.900 C 289.493 323.283,289.570 268.085,288.956 266.470 C 288.430 265.086,287.981 265.445,287.354 267.751 C 287.069 268.796,286.508 270.279,286.106 271.045 C 285.704 271.811,285.100 273.065,284.763 273.831 C 283.576 276.530,283.098 277.327,279.515 282.587 C 275.462 288.535,265.873 296.086,259.868 298.057 C 259.084 298.314,257.748 298.879,256.898 299.312 C 256.049 299.745,255.062 300.100,254.705 300.100 C 254.347 300.100,253.080 300.435,251.888 300.845 C 244.747 303.302,225.738 303.334,218.816 300.900 C 217.563 300.460,216.249 300.100,215.898 300.100 C 214.725 300.100,206.155 296.209,204.123 294.754 C 203.606 294.384,202.289 293.507,201.194 292.805 C 197.876 290.677,192.205 285.308,190.366 282.555 C 189.754 281.638,188.762 280.151,188.160 279.250 C 187.559 278.349,186.778 276.988,186.425 276.226 C 186.071 275.463,185.444 274.409,185.031 273.883 C 184.617 273.358,184.279 272.631,184.279 272.269 C 184.279 271.907,183.915 270.902,183.471 270.034 C 183.027 269.167,182.384 267.387,182.044 266.079 C 181.703 264.771,181.264 263.402,181.069 263.037 C 180.874 262.673,180.263 259.178,179.711 255.270 L 178.706 248.165 178.706 198.002 C 178.706 153.245,178.640 147.743,178.087 146.954 L 177.467 146.070 144.902 146.070 C 115.095 146.070,112.290 146.125,111.790 146.728 M216.054 146.332 C 215.689 146.432,215.283 146.796,215.150 147.141 C 214.751 148.181,214.898 241.982,215.303 244.378 C 217.677 258.442,222.651 264.824,232.109 265.942 C 244.505 267.408,252.345 261.536,255.587 248.358 L 256.517 244.577 256.617 196.020 C 256.680 165.388,256.575 147.242,256.333 146.866 C 255.962 146.288,218.055 145.786,216.054 146.332 " stroke="none" fill="#e11c36" fill-rule="evenodd"></path><path id="path1" d="M162.189 80.413 C 159.881 81.053,157.009 82.052,156.418 82.420 C 156.090 82.624,155.194 83.099,154.428 83.476 C 151.076 85.125,145.672 90.845,144.178 94.328 C 143.849 95.095,143.200 96.527,142.735 97.512 C 141.430 100.280,141.465 112.039,142.786 114.512 C 143.279 115.433,143.682 116.427,143.682 116.721 C 143.682 118.443,148.632 124.360,151.941 126.593 C 160.785 132.562,174.724 132.565,182.663 126.601 C 185.480 124.483,190.249 119.039,190.249 117.939 C 190.249 117.753,190.636 116.886,191.109 116.014 C 194.780 109.247,193.748 98.317,188.756 91.085 C 187.468 89.217,182.023 83.980,181.371 83.980 C 181.177 83.980,180.535 83.636,179.943 83.214 C 176.441 80.721,166.647 79.175,162.189 80.413 M219.213 81.094 C 212.254 81.204,211.732 81.264,211.338 82.001 C 210.977 82.675,211.077 82.853,212.025 83.228 C 215.878 84.752,215.749 83.980,215.734 105.460 C 215.727 115.501,215.614 124.045,215.484 124.445 C 214.829 126.455,213.859 127.811,212.935 128.005 C 210.585 128.499,209.965 128.942,210.657 129.633 C 211.361 130.338,226.705 130.455,227.408 129.762 C 228.004 129.174,227.274 128.568,225.657 128.310 C 222.497 127.804,222.090 126.396,222.090 115.975 C 222.090 107.942,222.192 107.724,225.779 108.142 C 227.672 108.363,230.846 111.306,230.846 112.839 C 230.846 113.112,231.114 113.558,231.441 113.829 C 231.768 114.101,232.766 115.601,233.659 117.162 C 239.837 127.967,241.974 130.085,247.065 130.446 C 252.092 130.802,254.908 129.380,250.847 128.537 C 247.888 127.923,246.253 126.264,242.786 120.360 C 240.885 117.123,239.967 115.612,238.818 113.831 C 237.478 111.752,235.224 107.481,235.224 107.020 C 235.224 106.846,235.992 106.364,236.931 105.949 C 246.452 101.737,246.723 87.299,237.373 82.458 C 235.965 81.730,230.762 80.791,228.657 80.887 C 227.562 80.936,223.313 81.029,219.213 81.094 M85.796 81.823 C 84.976 82.643,85.197 82.932,87.251 83.721 C 88.321 84.132,89.251 84.854,89.751 85.662 C 91.729 88.857,94.017 92.844,95.525 95.721 C 95.984 96.597,96.878 98.209,97.512 99.303 C 98.146 100.398,99.042 102.010,99.502 102.886 C 99.963 103.761,100.859 105.373,101.494 106.468 C 104.870 112.287,105.075 113.008,105.075 119.107 C 105.075 125.693,104.211 128.159,101.906 128.159 C 99.655 128.159,98.629 129.302,100.199 130.059 C 101.423 130.650,115.238 130.400,115.993 129.773 C 116.829 129.080,116.416 128.679,114.209 128.040 C 111.584 127.280,111.455 126.799,111.455 117.811 C 111.455 111.719,111.580 109.836,112.037 109.055 C 112.357 108.507,112.998 107.343,113.461 106.468 C 113.924 105.592,114.869 103.842,115.560 102.578 C 116.251 101.314,117.686 98.627,118.749 96.608 C 119.812 94.588,121.186 92.040,121.802 90.945 C 122.419 89.851,123.215 88.328,123.571 87.562 C 124.382 85.819,126.514 83.582,127.365 83.582 C 127.718 83.582,128.336 83.342,128.738 83.048 C 130.219 81.964,128.112 81.194,123.666 81.194 C 118.203 81.194,116.833 82.088,119.575 83.863 L 120.932 84.742 120.163 86.849 C 119.740 88.007,119.183 89.313,118.925 89.751 C 118.667 90.189,118.042 91.353,117.535 92.338 C 117.029 93.323,116.447 94.398,116.243 94.726 C 116.039 95.055,115.613 95.861,115.297 96.517 C 110.398 106.707,109.245 107.837,107.480 104.179 C 107.031 103.249,106.145 101.592,105.512 100.498 C 104.879 99.403,103.976 97.791,103.507 96.915 C 103.038 96.040,102.141 94.428,101.513 93.333 C 97.464 86.270,97.133 84.901,99.203 83.787 C 100.752 82.954,101.156 81.854,100.067 81.436 C 98.540 80.850,86.441 81.178,85.796 81.823 M271.487 81.697 C 270.199 82.364,270.395 82.889,272.155 83.486 C 275.185 84.513,275.025 83.273,275.025 105.746 L 275.025 125.832 273.861 126.996 C 273.222 127.636,272.271 128.159,271.748 128.159 C 270.502 128.159,269.117 129.167,269.652 129.686 C 269.974 129.998,283.595 130.424,286.269 130.206 C 287.320 130.120,287.155 128.611,286.070 128.391 C 285.577 128.291,284.726 128.113,284.179 127.995 C 281.172 127.349,279.845 113.122,282.442 109.375 C 284.551 106.332,285.437 106.839,292.316 115.025 C 294.247 117.323,296.117 119.493,296.471 119.847 C 299.410 122.785,302.740 127.224,303.378 129.054 L 303.759 130.149 310.245 130.149 C 315.613 130.149,316.770 130.047,316.958 129.558 C 317.229 128.852,316.369 128.354,314.336 128.042 C 311.629 127.626,309.960 126.058,301.393 115.877 C 297.959 111.797,294.620 107.920,293.973 107.264 C 289.714 102.940,289.676 101.974,293.599 97.786 C 303.526 87.188,306.533 84.382,308.619 83.768 C 313.763 82.256,311.465 81.115,303.610 81.282 C 297.581 81.410,296.619 81.881,298.613 83.729 C 300.077 85.086,299.641 86.170,296.007 90.205 C 294.427 91.959,291.188 95.582,288.808 98.256 C 280.796 107.262,281.393 107.507,281.393 95.204 L 281.393 85.891 282.746 84.537 C 283.591 83.692,284.488 83.184,285.134 83.184 C 285.973 83.184,286.169 82.995,286.169 82.189 L 286.169 81.194 279.303 81.200 C 274.643 81.204,272.132 81.364,271.487 81.697 M171.357 83.728 C 175.331 84.581,180.483 88.395,182.179 91.738 C 182.513 92.397,182.988 93.185,183.234 93.491 C 183.688 94.055,185.192 98.157,185.875 100.697 C 186.360 102.501,186.360 111.230,185.875 113.035 C 184.379 118.596,183.154 120.922,180.223 123.763 C 171.462 132.254,156.991 129.005,151.499 117.315 C 142.654 98.485,153.629 79.921,171.357 83.728 M229.461 84.114 C 233.539 84.532,236.602 88.385,237.862 94.681 C 238.940 100.074,233.283 105.075,226.104 105.075 C 222.114 105.075,222.090 105.008,222.090 94.109 C 222.090 84.133,222.079 84.180,224.279 83.897 C 225.444 83.747,226.188 83.778,229.461 84.114 " stroke="none" fill="#272727" fill-rule="evenodd"></path><path id="path2" d="M24.080 21.385 C 23.642 21.495,23.152 21.788,22.991 22.036 C 22.543 22.728,22.628 375.410,23.076 376.119 C 23.668 377.055,376.548 377.226,377.483 376.291 C 378.390 375.384,378.451 23.306,377.545 22.066 C 377.002 21.325,27.007 20.650,24.080 21.385 M174.633 80.802 C 175.615 81.236,176.710 81.595,177.066 81.598 C 177.421 81.601,178.090 81.825,178.553 82.095 C 179.016 82.366,180.090 82.973,180.941 83.446 C 194.158 90.783,197.643 110.193,187.849 121.917 C 180.290 130.965,166.752 134.169,156.551 129.325 C 155.202 128.684,154.002 128.159,153.885 128.159 C 152.147 128.159,143.682 119.250,143.682 117.421 C 143.682 117.251,143.193 116.060,142.597 114.774 C 140.962 111.255,140.972 100.948,142.612 97.364 C 143.200 96.079,143.682 94.844,143.682 94.620 C 143.682 92.973,150.970 84.802,153.363 83.765 C 154.058 83.464,155.164 82.853,155.821 82.408 C 156.478 81.962,157.337 81.596,157.731 81.595 C 158.125 81.593,159.014 81.299,159.706 80.941 C 162.652 79.418,171.321 79.337,174.633 80.802 M233.736 81.214 C 246.084 83.953,248.821 99.119,238.111 105.466 C 236.852 106.212,235.746 106.878,235.654 106.945 C 235.413 107.121,237.255 111.098,238.013 112.040 C 238.366 112.478,238.870 113.284,239.134 113.831 C 239.399 114.378,240.143 115.632,240.788 116.617 C 241.433 117.602,242.255 118.945,242.615 119.602 C 245.770 125.365,248.276 127.964,251.047 128.345 C 256.026 129.030,254.642 130.301,248.717 130.484 L 244.338 130.619 242.468 129.327 C 240.426 127.917,237.804 124.892,236.454 122.388 C 235.981 121.512,235.064 119.990,234.416 119.005 C 233.767 118.020,232.970 116.644,232.644 115.948 C 232.318 115.251,231.852 114.558,231.609 114.407 C 231.365 114.257,230.957 113.662,230.703 113.087 C 229.026 109.289,226.510 107.662,223.488 108.421 L 222.488 108.672 222.488 116.836 C 222.488 126.622,222.729 127.599,225.241 128.001 C 227.604 128.379,228.506 129.162,227.486 129.950 C 226.691 130.565,212.254 130.872,210.779 130.306 C 209.439 129.791,210.075 128.574,211.945 128.074 C 215.344 127.165,215.320 127.326,215.343 105.845 C 215.365 84.863,215.321 84.483,212.813 83.779 C 210.835 83.224,210.359 82.688,210.918 81.643 C 211.342 80.851,211.722 80.807,219.213 80.696 C 223.532 80.632,227.738 80.538,228.561 80.489 C 229.385 80.439,231.713 80.765,233.736 81.214 M100.853 81.426 C 101.336 82.685,101.067 83.236,99.684 83.814 C 97.787 84.607,97.677 85.128,98.877 87.664 C 99.440 88.854,99.900 89.999,99.900 90.208 C 99.900 90.416,100.123 90.809,100.394 91.081 C 100.666 91.353,101.696 93.062,102.683 94.879 C 108.606 105.784,108.400 105.465,109.485 105.469 C 110.218 105.472,110.659 105.159,111.024 104.378 C 111.305 103.776,111.729 102.925,111.964 102.488 C 112.200 102.050,113.629 99.274,115.141 96.318 C 116.652 93.363,118.056 90.741,118.260 90.491 C 118.905 89.704,120.589 85.085,120.364 84.721 C 120.245 84.529,119.623 84.100,118.980 83.768 C 117.761 83.138,117.471 82.091,118.289 81.274 C 119.186 80.376,128.839 80.632,129.339 81.566 C 130.030 82.857,129.823 83.168,127.940 83.671 C 126.044 84.179,124.840 85.376,123.604 87.985 C 123.247 88.738,122.460 90.249,121.855 91.343 C 121.251 92.438,120.570 93.692,120.343 94.129 C 120.116 94.567,119.637 95.463,119.279 96.119 C 118.920 96.776,118.264 98.030,117.820 98.905 C 117.376 99.781,116.030 102.289,114.828 104.478 C 111.167 111.144,111.381 110.233,111.519 118.610 C 111.655 126.907,111.815 127.433,114.370 127.988 C 116.617 128.477,117.242 129.149,116.159 129.908 C 114.847 130.827,100.260 130.864,99.502 129.950 C 98.820 129.128,99.649 128.161,101.044 128.153 C 102.326 128.146,102.684 127.905,103.800 126.307 C 104.907 124.722,105.133 114.078,104.104 112.001 C 103.789 111.366,103.329 110.398,103.081 109.851 C 102.834 109.303,102.107 107.960,101.466 106.866 C 100.826 105.771,99.924 104.159,99.463 103.284 C 99.002 102.408,98.107 100.796,97.473 99.701 C 96.840 98.607,95.937 96.905,95.467 95.920 C 94.998 94.935,94.467 94.034,94.287 93.916 C 94.108 93.799,93.673 93.014,93.321 92.171 C 92.969 91.328,92.359 90.171,91.965 89.598 C 91.572 89.026,90.685 87.662,89.993 86.567 C 88.980 84.964,88.338 84.421,86.687 83.773 C 84.400 82.876,84.041 82.384,84.986 81.439 C 85.941 80.484,100.487 80.471,100.853 81.426 M286.534 81.692 C 286.940 82.763,286.400 83.582,285.286 83.582 C 282.046 83.582,281.397 85.544,281.401 95.323 C 281.405 105.792,281.403 105.788,284.464 102.587 C 286.403 100.559,287.876 98.938,294.129 91.948 C 295.771 90.113,297.442 88.272,297.843 87.856 C 299.439 86.200,299.564 84.727,298.198 83.673 C 297.093 82.821,297.010 82.616,297.412 81.733 L 297.862 80.745 304.586 80.870 C 310.646 80.983,311.364 81.070,311.861 81.750 C 312.737 82.950,312.424 83.143,307.978 84.142 C 305.904 84.609,290.945 100.426,290.945 102.152 C 290.945 103.203,292.797 105.914,294.866 107.891 C 295.227 108.236,298.209 111.712,301.493 115.615 C 310.265 126.043,311.881 127.505,315.259 128.079 C 316.648 128.315,317.041 128.559,317.140 129.249 C 317.315 130.461,316.474 130.598,309.652 130.463 L 303.881 130.348 303.226 129.037 C 302.375 127.334,299.024 122.883,296.842 120.558 C 295.181 118.788,287.377 109.688,286.957 109.031 C 285.942 107.443,283.786 107.834,282.381 109.861 L 281.312 111.403 281.452 118.090 C 281.624 126.320,282.374 128.159,285.556 128.159 C 286.836 128.159,287.622 129.159,286.965 129.950 C 286.262 130.797,270.795 130.836,269.643 129.993 C 268.623 129.247,269.479 128.159,271.087 128.159 C 271.783 128.159,272.732 127.708,273.526 126.998 L 274.826 125.837 274.940 106.697 C 275.075 84.126,275.143 84.666,272.026 83.760 C 269.801 83.113,269.269 82.333,270.328 81.274 C 271.347 80.255,286.134 80.636,286.534 81.692 M161.927 83.961 C 156.510 84.956,151.158 90.670,149.827 96.881 C 148.173 104.596,148.165 105.320,149.652 111.509 C 150.897 116.692,153.915 121.783,157.459 124.681 C 166.024 131.685,181.217 127.558,184.216 117.413 C 184.443 116.647,184.933 115.214,185.306 114.229 C 187.173 109.296,185.633 96.989,182.678 93.232 C 182.245 92.682,181.890 92.031,181.889 91.787 C 181.885 90.902,177.257 86.470,175.018 85.208 C 172.504 83.791,166.152 83.186,161.927 83.961 M222.985 84.422 C 222.166 85.267,222.283 103.222,223.113 104.051 C 223.938 104.877,227.901 104.881,231.061 104.060 C 239.140 101.961,239.808 90.503,232.148 85.429 C 230.045 84.036,224.002 83.372,222.985 84.422 M178.087 146.954 C 178.640 147.743,178.706 153.245,178.706 198.002 L 178.706 248.165 179.711 255.270 C 180.263 259.178,180.874 262.673,181.069 263.037 C 181.264 263.402,181.703 264.771,182.044 266.079 C 182.384 267.387,183.027 269.167,183.471 270.034 C 183.915 270.902,184.279 271.907,184.279 272.269 C 184.279 272.631,184.617 273.358,185.031 273.883 C 185.444 274.409,186.071 275.463,186.425 276.226 C 186.778 276.988,187.559 278.349,188.160 279.250 C 188.762 280.151,189.754 281.638,190.366 282.555 C 192.205 285.308,197.876 290.677,201.194 292.805 C 202.289 293.507,203.606 294.384,204.123 294.754 C 206.155 296.209,214.725 300.100,215.898 300.100 C 216.249 300.100,217.563 300.460,218.816 300.900 C 225.738 303.334,244.747 303.302,251.888 300.845 C 253.080 300.435,254.347 300.100,254.705 300.100 C 255.062 300.100,256.049 299.745,256.898 299.312 C 257.748 298.879,259.084 298.314,259.868 298.057 C 265.873 296.086,275.462 288.535,279.515 282.587 C 283.098 277.327,283.576 276.530,284.763 273.831 C 285.100 273.065,285.704 271.811,286.106 271.045 C 286.508 270.279,287.069 268.796,287.354 267.751 C 287.981 265.445,288.430 265.086,288.956 266.470 C 289.570 268.085,289.493 323.283,288.876 323.900 C 288.021 324.755,112.501 324.576,111.790 323.720 C 110.972 322.735,110.972 147.713,111.790 146.728 C 112.290 146.125,115.095 146.070,144.902 146.070 L 177.467 146.070 178.087 146.954 M256.333 146.866 C 256.575 147.242,256.680 165.388,256.617 196.020 L 256.517 244.577 255.587 248.358 C 252.345 261.536,244.505 267.408,232.109 265.942 C 222.651 264.824,217.677 258.442,215.303 244.378 C 214.898 241.982,214.751 148.181,215.150 147.141 C 215.529 146.153,215.649 146.148,236.333 146.210 C 253.291 146.261,256.002 146.350,256.333 146.866 " stroke="none" fill="#fbfafb" fill-rule="evenodd"></path></g></svg>