<?xml version="1.0" standalone="yes"?>
<svg xmlns="http://www.w3.org/2000/svg" width="74" height="71">
<path style="fill:#faf8f7; stroke:none;" d="M0 0L0 71L74 71L74 0L0 0z"/>
<path style="fill:#e2d07c; stroke:none;" d="M31 7L32 8L31 7z"/>
<path style="fill:#7d9d9d; stroke:none;" d="M31 8L30 12L31 12L31 8z"/>
<path style="fill:#e2d07c; stroke:none;" d="M30 9L31 10L30 9M34 9L35 12L36 12L36 9L34 9M27 10L20.6667 37L17 44L16 44L19 47L19 48L16 48L16 49L18 51L17 53L12 56L20 60C19.0724 55.3798 18.549 47.6544 22 44L23 40L22 36L24 40L25 40L23 31L24 30L27 31L27 30L25 20L26 20L27 23L28 23L26 16L27 16L28 20L29 20L27 12L28 12L29 15L30 15L27 10M31 10L33 16L32 16L31 14L30 21L31 21L31 16L32 16L34 19L35 19L31 10z"/>
<path style="fill:#7d9d9d; stroke:none;" d="M34.3333 10.6667L34.6667 11.3333L34.3333 10.6667z"/>
<path style="fill:#faf8f7; stroke:none;" d="M27 12L27 15L28 15L27 12z"/>
<path style="fill:#605f72; stroke:none;" d="M30 12L31 13L30 12z"/>
<path style="fill:#faf8f7; stroke:none;" d="M31.3333 12.6667L31.6667 13.3333L31.3333 12.6667z"/>
<path style="fill:#b1727a; stroke:none;" d="M32 12L32 16L33 16L32 12M34 12L34 15L35 15L34 12z"/>
<path style="fill:#7d9d9d; stroke:none;" d="M30 13L28 14L29 20L28 20L28 17L27 17L28 24L29 24L30 13M34 15L35 16L34 15z"/>
<path style="fill:#faf8f7; stroke:none;" d="M26 16L26 20L27 20L26 16z"/>
<path style="fill:#b1727a; stroke:none;" d="M31 16L24 57L26 57L26 53L27 53L29 55L27 52L28 48L29 48L29 50L30 50L29 47L45 45L45 44L34 44L34 43L56 44L56 43L49 43L49 42L61 42L61 41L31 43L31 16z"/>
<path style="fill:#7d9d9d; stroke:none;" d="M33 17L34 18L33 17z"/>
<path style="fill:#faf8f7; stroke:none;" d="M32.3333 18.6667L32.6667 19.3333L32.3333 18.6667z"/>
<path style="fill:#b1727a; stroke:none;" d="M33 18L31 30L32 30L33 18z"/>
<path style="fill:#faf8f7; stroke:none;" d="M25 20L25 24L26 24L25 20z"/>
<path style="fill:#e2d07c; stroke:none;" d="M32 20L31 24L32 24L32 20z"/>
<path style="fill:#7d9d9d; stroke:none;" d="M26 21L25 30L26 30L26 26L27 26L29 28L26 21z"/>
<path style="fill:#e2d07c; stroke:none;" d="M29 22L29 27L30 27L29 22z"/>
<path style="fill:#faf8f7; stroke:none;" d="M27 23L28 24L27 23z"/>
<path style="fill:#e2d07c; stroke:none;" d="M33 23L33 26L34 26L33 23M27.3333 24.6667L27.6667 25.3333L27.3333 24.6667z"/>
<path style="fill:#605f72; stroke:none;" d="M28.3333 24.6667L28.6667 25.3333L28.3333 24.6667z"/>
<path style="fill:#faf8f7; stroke:none;" d="M31.3333 24.6667L31.6667 25.3333L31.3333 24.6667M24.3333 26.6667L24.6667 27.3333L24.3333 26.6667M26 26L26 30L27 30L26 26z"/>
<path style="fill:#e2d07c; stroke:none;" d="M31 26L30 33L31 33L31 26z"/>
<path style="fill:#605f72; stroke:none;" d="M27 28L24 46L21 47L22 55L23 55L26 49L27 28z"/>
<path style="fill:#e2d07c; stroke:none;" d="M28 28L28 33L29 33L28 28z"/>
<path style="fill:#7d9d9d; stroke:none;" d="M32 29L33 30L32 29M24 30L25 37L26 37L24 30z"/>
<path style="fill:#605f72; stroke:none;" d="M31 30L31 33L32 33L31 30z"/>
<path style="fill:#e2d07c; stroke:none;" d="M32 30L33 31L32 30z"/>
<path style="fill:#faf8f7; stroke:none;" d="M23 31L24 32L23 31M25 31L25 34L26 34L25 31z"/>
<path style="fill:#7d9d9d; stroke:none;" d="M26 31L27 32L26 31M27.3333 32.6667L27.6667 33.3333L27.3333 32.6667z"/>
<path style="fill:#e2d07c; stroke:none;" d="M25 34L26 35L25 34M27 34L28 35L27 34M29 34L29 40L30 40L29 34z"/>
<path style="fill:#faf8f7; stroke:none;" d="M27 35L28 36L27 35M22 36L22 39L23 39L22 36z"/>
<path style="fill:#7d9d9d; stroke:none;" d="M23 36L20 44L20 45L24 46L23 36z"/>
<path style="fill:#e2d07c; stroke:none;" d="M27 36L27 39L28 39L27 36M31.3333 36.6667L31.6667 37.3333L31.3333 36.6667z"/>
<path style="fill:#7d9d9d; stroke:none;" d="M26.3333 37.6667L26.6667 38.3333L26.3333 37.6667z"/>
<path style="fill:#faf8f7; stroke:none;" d="M26 39L26 42L27 42L26 39M21 40L21 43L22 43L21 40z"/>
<path style="fill:#e2d07c; stroke:none;" d="M28 41L29 42L28 41M40 41L40 42L44 42L40 41z"/>
<path style="fill:#7d9d9d; stroke:none;" d="M61 41L62 42L61 41z"/>
<path style="fill:#e2d07c; stroke:none;" d="M49 42L49 43L56 43L56 44L35 43L35 44L45 44L45 45L33 46L33 47L68 45L68 46L52 48L52 47L55 47L55 46L47 47L47 48L49 50L33 48L33 49L38 50L38 51L30 50L29 54C41.2859 50.104 58.9322 53.9118 69 46L62 43L62 42L65 42L49 42M23 42L24 43L23 42M26 42L27 43L26 42M31 42L32 43L31 42z"/>
<path style="fill:#7d9d9d; stroke:none;" d="M32 42L33 43L32 42z"/>
<path style="fill:#b1727a; stroke:none;" d="M62 42L62 43L69 43L62 42z"/>
<path style="fill:#605f72; stroke:none;" d="M29 43L30 44L29 43z"/>
<path style="fill:#7d9d9d; stroke:none;" d="M34 43L35 44L34 43z"/>
<path style="fill:#b1727a; stroke:none;" d="M17 44L17 46L19 44L17 44z"/>
<path style="fill:#605f72; stroke:none;" d="M21 44L22 45L21 44z"/>
<path style="fill:#e2d07c; stroke:none;" d="M31 44L32 45L31 44z"/>
<path style="fill:#7d9d9d; stroke:none;" d="M45 45L45 46L51 47L51 45L45 45z"/>
<path style="fill:#605f72; stroke:none;" d="M51 45L51 46L62 46L51 45z"/>
<path style="fill:#7d9d9d; stroke:none;" d="M62 45L62 46L68 46L62 45z"/>
<path style="fill:#b1727a; stroke:none;" d="M20 46L21 47L20 46z"/>
<path style="fill:#faf8f7; stroke:none;" d="M30 46L30 47L33 47L30 46z"/>
<path style="fill:#7d9d9d; stroke:none;" d="M35 46C38.7973 49.8776 43.878 49 49 49L49 48L35 46z"/>
<path style="fill:#605f72; stroke:none;" d="M37 46L37 47L47 47L37 46z"/>
<path style="fill:#faf8f7; stroke:none;" d="M55 46L55 47L64 47L55 46z"/>
<path style="fill:#7d9d9d; stroke:none;" d="M68 46L69 47L68 46z"/>
<path style="fill:#e2d07c; stroke:none;" d="M14 47L14 50L15 50L14 47z"/>
<path style="fill:#b1727a; stroke:none;" d="M15 49L19 48L15 49z"/>
<path style="fill:#7d9d9d; stroke:none;" d="M20 47L19 59L20 59L23 53L20 47M22 47L23 48L22 47z"/>
<path style="fill:#605f72; stroke:none;" d="M29 47L29 48L36 48L29 47z"/>
<path style="fill:#e2d07c; stroke:none;" d="M40 47L41 48L40 47z"/>
<path style="fill:#faf8f7; stroke:none;" d="M41 47L41 48L47 48L41 47z"/>
<path style="fill:#7d9d9d; stroke:none;" d="M52 47L52 48L63 48L52 47z"/>
<path style="fill:#605f72; stroke:none;" d="M28 48L28 52L29 52L28 48z"/>
<path style="fill:#7d9d9d; stroke:none;" d="M30 48L37 50L30 48M14 50L14 51L18 51L14 50z"/>
<path style="fill:#605f72; stroke:none;" d="M16 49L17 50L16 49z"/>
<path style="fill:#b1727a; stroke:none;" d="M17 49L18 50L17 49z"/>
<path style="fill:#605f72; stroke:none;" d="M20 49L21 50L20 49z"/>
<path style="fill:#7d9d9d; stroke:none;" d="M24 49L25 50L24 49z"/>
<path style="fill:#faf8f7; stroke:none;" d="M44 49L44 50L47 50L44 49M48 49L49 50L48 49z"/>
<path style="fill:#605f72; stroke:none;" d="M15 50L16 51L15 50z"/>
<path style="fill:#7d9d9d; stroke:none;" d="M29 50L30 51L29 50z"/>
<path style="fill:#faf8f7; stroke:none;" d="M32 50L32 51L38 51L32 50z"/>
<path style="fill:#7d9d9d; stroke:none;" d="M24.3333 51.6667L24.6667 52.3333L24.3333 51.6667z"/>
<path style="fill:#e2d07c; stroke:none;" d="M27 51L28 52L27 51M11 52L12 53L11 52z"/>
<path style="fill:#7d9d9d; stroke:none;" d="M11 53L11 54L17 53L11 53z"/>
<path style="fill:#e2d07c; stroke:none;" d="M21 52L21 55L22 55L21 52M26.3333 53.6667L26.6667 54.3333L26.3333 53.6667z"/>
<path style="fill:#7d9d9d; stroke:none;" d="M23 54L24 55L23 54z"/>
<path style="fill:#e2d07c; stroke:none;" d="M22.6667 55.3333L23.3333 55.6667L22.6667 55.3333M27.6667 55.3333L28.3333 55.6667L27.6667 55.3333M20.3333 56.6667L20.6667 57.3333L20.3333 56.6667M24.6667 57.3333L25.3333 57.6667L24.6667 57.3333z"/>
</svg>
